<ttFont>
<head>
    <!-- Most of this table will be recalculated by the compiler -->
    <tableVersion value="1.0"/>
    <fontRevision value="1.0"/>
    <checkSumAdjustment value="0xe781f029"/>
    <magicNumber value="0x5f0f3cf5"/>
    <flags value="00001000 00000011"/>
    <unitsPerEm value="1000"/>
    <created value="Fri Jul 26 23:39:27 2024"/>
    <modified value="Fri Aug 16 14:00:16 2024"/>
    <xMin value="7"/>
    <yMin value="-82"/>
    <xMax value="977"/>
    <yMax value="854"/>
    <macStyle value="00000000 00000000"/>
    <lowestRecPPEM value="3"/>
    <fontDirectionHint value="2"/>
    <indexToLocFormat value="0"/>
    <glyphDataFormat value="0"/>
  </head>
    <TTGlyph name="A" xMin="87" yMin="0" xMax="675" yMax="732">
      <contour>
        <pt x="353" y="420" on="1"/>
        <pt x="675" y="0" on="1"/>
        <pt x="561" y="0" on="1"/>
        <pt x="291" y="354" on="1"/>
        <pt x="176" y="233" on="1"/>
        <pt x="176" y="0" on="1"/>
        <pt x="87" y="0" on="1"/>
        <pt x="87" y="732" on="1"/>
        <pt x="176" y="732" on="1"/>
        <pt x="176" y="343" on="1"/>
        <pt x="534" y="732" on="1"/>
        <pt x="650" y="732" on="1"/>
      </contour>
    </TTGlyph>
    <TTGlyph name="B" xMin="87" yMin="0" xMax="536" yMax="732">
      <contour>
        <pt x="87" y="732" on="1"/>
        <pt x="536" y="732" on="1"/>
        <pt x="536" y="653" on="1"/>
        <pt x="176" y="653" on="1"/>
        <pt x="176" y="406" on="1"/>
        <pt x="498" y="406" on="1"/>
        <pt x="498" y="327" on="1"/>
        <pt x="176" y="327" on="1"/>
        <pt x="176" y="0" on="1"/>
        <pt x="87" y="0" on="1"/>
      </contour>
    </TTGlyph>
    <TTGlyph name="C" xMin="50" yMin="-11" xMax="629" yMax="744">
      <contour>
        <pt x="501" y="71" on="0"/>
        <pt x="557" y="182" on="1"/>
        <pt x="629" y="140" on="1"/>
        <pt x="598" y="69" on="0"/>
        <pt x="468" y="-11" on="0"/>
        <pt x="383" y="-11" on="1"/>
        <pt x="290" y="-11" on="0"/>
        <pt x="138" y="85" on="0"/>
        <pt x="50" y="257" on="0"/>
        <pt x="50" y="367" on="1"/>
        <pt x="50" y="477" on="0"/>
        <pt x="138" y="649" on="0"/>
        <pt x="290" y="744" on="0"/>
        <pt x="383" y="744" on="1"/>
        <pt x="468" y="744" on="0"/>
        <pt x="598" y="664" on="0"/>
        <pt x="629" y="593" on="1"/>
        <pt x="557" y="551" on="1"/>
        <pt x="501" y="662" on="0"/>
        <pt x="381" y="662" on="1"/>
        <pt x="311" y="662" on="0"/>
        <pt x="203" y="588" on="0"/>
        <pt x="144" y="454" on="0"/>
        <pt x="144" y="367" on="1"/>
        <pt x="144" y="280" on="0"/>
        <pt x="203" y="145" on="0"/>
        <pt x="311" y="71" on="0"/>
        <pt x="381" y="71" on="1"/>
      </contour>
    </TTGlyph>
    <TTGlyph name="D" xMin="7" yMin="0" xMax="651" yMax="732">
      <contour>
        <pt x="106" y="732" on="1"/>
        <pt x="339" y="119" on="1"/>
        <pt x="561" y="732" on="1"/>
        <pt x="651" y="732" on="1"/>
        <pt x="373" y="0" on="1"/>
        <pt x="298" y="0" on="1"/>
        <pt x="7" y="732" on="1"/>
      </contour>
    </TTGlyph>
    <TTGlyph name="E" xMin="69" yMin="-11" xMax="513" yMax="734">
      <contour>
        <pt x="355" y="467" on="0"/>
        <pt x="457" y="406" on="0"/>
        <pt x="513" y="299" on="0"/>
        <pt x="513" y="231" on="1"/>
        <pt x="513" y="160" on="0"/>
        <pt x="451" y="50" on="0"/>
        <pt x="343" y="-11" on="0"/>
        <pt x="277" y="-11" on="1"/>
        <pt x="204" y="-11" on="0"/>
        <pt x="91" y="62" on="0"/>
        <pt x="69" y="132" on="1"/>
        <pt x="141" y="173" on="1"/>
        <pt x="159" y="122" on="0"/>
        <pt x="228" y="70" on="0"/>
        <pt x="277" y="70" on="1"/>
        <pt x="343" y="70" on="0"/>
        <pt x="419" y="158" on="0"/>
        <pt x="419" y="227" on="1"/>
        <pt x="419" y="294" on="0"/>
        <pt x="346" y="386" on="0"/>
        <pt x="277" y="386" on="1"/>
        <pt x="190" y="386" on="0"/>
        <pt x="141" y="307" on="1"/>
        <pt x="84" y="336" on="1"/>
        <pt x="134" y="734" on="1"/>
        <pt x="480" y="734" on="1"/>
        <pt x="480" y="656" on="1"/>
        <pt x="212" y="656" on="1"/>
        <pt x="183" y="439" on="1"/>
        <pt x="227" y="467" on="0"/>
        <pt x="290" y="467" on="1"/>
      </contour>
    </TTGlyph>
    <TTGlyph name="F" xMin="48" yMin="-11" xMax="523" yMax="745">
      <contour>
        <pt x="523" y="180" on="0"/>
        <pt x="400" y="-11" on="0"/>
        <pt x="285" y="-11" on="1"/>
        <pt x="171" y="-11" on="0"/>
        <pt x="48" y="181" on="0"/>
        <pt x="48" y="366" on="1"/>
        <pt x="48" y="552" on="0"/>
        <pt x="171" y="745" on="0"/>
        <pt x="285" y="745" on="1"/>
        <pt x="400" y="745" on="0"/>
        <pt x="523" y="553" on="0"/>
        <pt x="523" y="366" on="1"/>
      </contour>
      <contour>
        <pt x="143" y="217" on="0"/>
        <pt x="212" y="71" on="0"/>
        <pt x="285" y="71" on="1"/>
        <pt x="358" y="71" on="0"/>
        <pt x="428" y="216" on="0"/>
        <pt x="428" y="366" on="1"/>
        <pt x="428" y="517" on="0"/>
        <pt x="358" y="664" on="0"/>
        <pt x="285" y="664" on="1"/>
        <pt x="212" y="664" on="0"/>
        <pt x="143" y="517" on="0"/>
        <pt x="143" y="366" on="1"/>
      </contour>
    </TTGlyph>
    <TTGlyph name="G" xMin="87" yMin="0" xMax="675" yMax="732">
      <contour>
        <pt x="353" y="420" on="1"/>
        <pt x="675" y="0" on="1"/>
        <pt x="561" y="0" on="1"/>
        <pt x="291" y="354" on="1"/>
        <pt x="176" y="233" on="1"/>
        <pt x="176" y="0" on="1"/>
        <pt x="87" y="0" on="1"/>
        <pt x="87" y="732" on="1"/>
        <pt x="176" y="732" on="1"/>
        <pt x="176" y="343" on="1"/>
        <pt x="534" y="732" on="1"/>
        <pt x="650" y="732" on="1"/>
      </contour>
    </TTGlyph>
    <TTGlyph name="H" xMin="87" yMin="0" xMax="536" yMax="732">
      <contour>
        <pt x="87" y="732" on="1"/>
        <pt x="536" y="732" on="1"/>
        <pt x="536" y="653" on="1"/>
        <pt x="176" y="653" on="1"/>
        <pt x="176" y="406" on="1"/>
        <pt x="498" y="406" on="1"/>
        <pt x="498" y="327" on="1"/>
        <pt x="176" y="327" on="1"/>
        <pt x="176" y="0" on="1"/>
        <pt x="87" y="0" on="1"/>
      </contour>
    </TTGlyph>
    <TTGlyph name="I" xMin="50" yMin="-11" xMax="629" yMax="744">
      <contour>
        <pt x="501" y="71" on="0"/>
        <pt x="557" y="182" on="1"/>
        <pt x="629" y="140" on="1"/>
        <pt x="598" y="69" on="0"/>
        <pt x="468" y="-11" on="0"/>
        <pt x="383" y="-11" on="1"/>
        <pt x="290" y="-11" on="0"/>
        <pt x="138" y="85" on="0"/>
        <pt x="50" y="257" on="0"/>
        <pt x="50" y="367" on="1"/>
        <pt x="50" y="477" on="0"/>
        <pt x="138" y="649" on="0"/>
        <pt x="290" y="744" on="0"/>
        <pt x="383" y="744" on="1"/>
        <pt x="468" y="744" on="0"/>
        <pt x="598" y="664" on="0"/>
        <pt x="629" y="593" on="1"/>
        <pt x="557" y="551" on="1"/>
        <pt x="501" y="662" on="0"/>
        <pt x="381" y="662" on="1"/>
        <pt x="311" y="662" on="0"/>
        <pt x="203" y="588" on="0"/>
        <pt x="144" y="454" on="0"/>
        <pt x="144" y="367" on="1"/>
        <pt x="144" y="280" on="0"/>
        <pt x="203" y="145" on="0"/>
        <pt x="311" y="71" on="0"/>
        <pt x="381" y="71" on="1"/>
      </contour>
    </TTGlyph>
    <TTGlyph name="J" xMin="7" yMin="0" xMax="651" yMax="732">
      <contour>
        <pt x="106" y="732" on="1"/>
        <pt x="339" y="119" on="1"/>
        <pt x="561" y="732" on="1"/>
        <pt x="651" y="732" on="1"/>
        <pt x="373" y="0" on="1"/>
        <pt x="298" y="0" on="1"/>
        <pt x="7" y="732" on="1"/>
      </contour>
    </TTGlyph>
    <TTGlyph name="K" xMin="69" yMin="-11" xMax="513" yMax="734">
      <contour>
        <pt x="355" y="467" on="0"/>
        <pt x="457" y="406" on="0"/>
        <pt x="513" y="299" on="0"/>
        <pt x="513" y="231" on="1"/>
        <pt x="513" y="160" on="0"/>
        <pt x="451" y="50" on="0"/>
        <pt x="343" y="-11" on="0"/>
        <pt x="277" y="-11" on="1"/>
        <pt x="204" y="-11" on="0"/>
        <pt x="91" y="62" on="0"/>
        <pt x="69" y="132" on="1"/>
        <pt x="141" y="173" on="1"/>
        <pt x="159" y="122" on="0"/>
        <pt x="228" y="70" on="0"/>
        <pt x="277" y="70" on="1"/>
        <pt x="343" y="70" on="0"/>
        <pt x="419" y="158" on="0"/>
        <pt x="419" y="227" on="1"/>
        <pt x="419" y="294" on="0"/>
        <pt x="346" y="386" on="0"/>
        <pt x="277" y="386" on="1"/>
        <pt x="190" y="386" on="0"/>
        <pt x="141" y="307" on="1"/>
        <pt x="84" y="336" on="1"/>
        <pt x="134" y="734" on="1"/>
        <pt x="480" y="734" on="1"/>
        <pt x="480" y="656" on="1"/>
        <pt x="212" y="656" on="1"/>
        <pt x="183" y="439" on="1"/>
        <pt x="227" y="467" on="0"/>
        <pt x="290" y="467" on="1"/>
      </contour>
    </TTGlyph>
    <TTGlyph name="L" xMin="48" yMin="-11" xMax="523" yMax="745">
      <contour>
        <pt x="523" y="180" on="0"/>
        <pt x="400" y="-11" on="0"/>
        <pt x="285" y="-11" on="1"/>
        <pt x="171" y="-11" on="0"/>
        <pt x="48" y="181" on="0"/>
        <pt x="48" y="366" on="1"/>
        <pt x="48" y="552" on="0"/>
        <pt x="171" y="745" on="0"/>
        <pt x="285" y="745" on="1"/>
        <pt x="400" y="745" on="0"/>
        <pt x="523" y="553" on="0"/>
        <pt x="523" y="366" on="1"/>
      </contour>
      <contour>
        <pt x="143" y="217" on="0"/>
        <pt x="212" y="71" on="0"/>
        <pt x="285" y="71" on="1"/>
        <pt x="358" y="71" on="0"/>
        <pt x="428" y="216" on="0"/>
        <pt x="428" y="366" on="1"/>
        <pt x="428" y="517" on="0"/>
        <pt x="358" y="664" on="0"/>
        <pt x="285" y="664" on="1"/>
        <pt x="212" y="664" on="0"/>
        <pt x="143" y="517" on="0"/>
        <pt x="143" y="366" on="1"/>
      </contour>
    </TTGlyph>
    <TTGlyph name="M" xMin="87" yMin="0" xMax="675" yMax="732">
      <contour>
        <pt x="353" y="420" on="1"/>
        <pt x="675" y="0" on="1"/>
        <pt x="561" y="0" on="1"/>
        <pt x="291" y="354" on="1"/>
        <pt x="176" y="233" on="1"/>
        <pt x="176" y="0" on="1"/>
        <pt x="87" y="0" on="1"/>
        <pt x="87" y="732" on="1"/>
        <pt x="176" y="732" on="1"/>
        <pt x="176" y="343" on="1"/>
        <pt x="534" y="732" on="1"/>
        <pt x="650" y="732" on="1"/>
      </contour>
    </TTGlyph>
    <TTGlyph name="N" xMin="87" yMin="0" xMax="536" yMax="732">
      <contour>
        <pt x="87" y="732" on="1"/>
        <pt x="536" y="732" on="1"/>
        <pt x="536" y="653" on="1"/>
        <pt x="176" y="653" on="1"/>
        <pt x="176" y="406" on="1"/>
        <pt x="498" y="406" on="1"/>
        <pt x="498" y="327" on="1"/>
        <pt x="176" y="327" on="1"/>
        <pt x="176" y="0" on="1"/>
        <pt x="87" y="0" on="1"/>
      </contour>
    </TTGlyph>
    <TTGlyph name="O" xMin="50" yMin="-11" xMax="629" yMax="744">
      <contour>
        <pt x="501" y="71" on="0"/>
        <pt x="557" y="182" on="1"/>
        <pt x="629" y="140" on="1"/>
        <pt x="598" y="69" on="0"/>
        <pt x="468" y="-11" on="0"/>
        <pt x="383" y="-11" on="1"/>
        <pt x="290" y="-11" on="0"/>
        <pt x="138" y="85" on="0"/>
        <pt x="50" y="257" on="0"/>
        <pt x="50" y="367" on="1"/>
        <pt x="50" y="477" on="0"/>
        <pt x="138" y="649" on="0"/>
        <pt x="290" y="744" on="0"/>
        <pt x="383" y="744" on="1"/>
        <pt x="468" y="744" on="0"/>
        <pt x="598" y="664" on="0"/>
        <pt x="629" y="593" on="1"/>
        <pt x="557" y="551" on="1"/>
        <pt x="501" y="662" on="0"/>
        <pt x="381" y="662" on="1"/>
        <pt x="311" y="662" on="0"/>
        <pt x="203" y="588" on="0"/>
        <pt x="144" y="454" on="0"/>
        <pt x="144" y="367" on="1"/>
        <pt x="144" y="280" on="0"/>
        <pt x="203" y="145" on="0"/>
        <pt x="311" y="71" on="0"/>
        <pt x="381" y="71" on="1"/>
      </contour>
    </TTGlyph>
    <TTGlyph name="P" xMin="7" yMin="0" xMax="651" yMax="732">
      <contour>
        <pt x="106" y="732" on="1"/>
        <pt x="339" y="119" on="1"/>
        <pt x="561" y="732" on="1"/>
        <pt x="651" y="732" on="1"/>
        <pt x="373" y="0" on="1"/>
        <pt x="298" y="0" on="1"/>
        <pt x="7" y="732" on="1"/>
      </contour>
    </TTGlyph>
    <TTGlyph name="Q" xMin="69" yMin="-11" xMax="513" yMax="734">
      <contour>
        <pt x="355" y="467" on="0"/>
        <pt x="457" y="406" on="0"/>
        <pt x="513" y="299" on="0"/>
        <pt x="513" y="231" on="1"/>
        <pt x="513" y="160" on="0"/>
        <pt x="451" y="50" on="0"/>
        <pt x="343" y="-11" on="0"/>
        <pt x="277" y="-11" on="1"/>
        <pt x="204" y="-11" on="0"/>
        <pt x="91" y="62" on="0"/>
        <pt x="69" y="132" on="1"/>
        <pt x="141" y="173" on="1"/>
        <pt x="159" y="122" on="0"/>
        <pt x="228" y="70" on="0"/>
        <pt x="277" y="70" on="1"/>
        <pt x="343" y="70" on="0"/>
        <pt x="419" y="158" on="0"/>
        <pt x="419" y="227" on="1"/>
        <pt x="419" y="294" on="0"/>
        <pt x="346" y="386" on="0"/>
        <pt x="277" y="386" on="1"/>
        <pt x="190" y="386" on="0"/>
        <pt x="141" y="307" on="1"/>
        <pt x="84" y="336" on="1"/>
        <pt x="134" y="734" on="1"/>
        <pt x="480" y="734" on="1"/>
        <pt x="480" y="656" on="1"/>
        <pt x="212" y="656" on="1"/>
        <pt x="183" y="439" on="1"/>
        <pt x="227" y="467" on="0"/>
        <pt x="290" y="467" on="1"/>
      </contour>
    </TTGlyph>
    <TTGlyph name="R" xMin="48" yMin="-11" xMax="523" yMax="745">
      <contour>
        <pt x="523" y="180" on="0"/>
        <pt x="400" y="-11" on="0"/>
        <pt x="285" y="-11" on="1"/>
        <pt x="171" y="-11" on="0"/>
        <pt x="48" y="181" on="0"/>
        <pt x="48" y="366" on="1"/>
        <pt x="48" y="552" on="0"/>
        <pt x="171" y="745" on="0"/>
        <pt x="285" y="745" on="1"/>
        <pt x="400" y="745" on="0"/>
        <pt x="523" y="553" on="0"/>
        <pt x="523" y="366" on="1"/>
      </contour>
      <contour>
        <pt x="143" y="217" on="0"/>
        <pt x="212" y="71" on="0"/>
        <pt x="285" y="71" on="1"/>
        <pt x="358" y="71" on="0"/>
        <pt x="428" y="216" on="0"/>
        <pt x="428" y="366" on="1"/>
        <pt x="428" y="517" on="0"/>
        <pt x="358" y="664" on="0"/>
        <pt x="285" y="664" on="1"/>
        <pt x="212" y="664" on="0"/>
        <pt x="143" y="517" on="0"/>
        <pt x="143" y="366" on="1"/>
      </contour>
    </TTGlyph>
    <TTGlyph name="S" xMin="87" yMin="0" xMax="675" yMax="732">
      <contour>
        <pt x="353" y="420" on="1"/>
        <pt x="675" y="0" on="1"/>
        <pt x="561" y="0" on="1"/>
        <pt x="291" y="354" on="1"/>
        <pt x="176" y="233" on="1"/>
        <pt x="176" y="0" on="1"/>
        <pt x="87" y="0" on="1"/>
        <pt x="87" y="732" on="1"/>
        <pt x="176" y="732" on="1"/>
        <pt x="176" y="343" on="1"/>
        <pt x="534" y="732" on="1"/>
        <pt x="650" y="732" on="1"/>
      </contour>
    </TTGlyph>
    <TTGlyph name="T" xMin="87" yMin="0" xMax="536" yMax="732">
      <contour>
        <pt x="87" y="732" on="1"/>
        <pt x="536" y="732" on="1"/>
        <pt x="536" y="653" on="1"/>
        <pt x="176" y="653" on="1"/>
        <pt x="176" y="406" on="1"/>
        <pt x="498" y="406" on="1"/>
        <pt x="498" y="327" on="1"/>
        <pt x="176" y="327" on="1"/>
        <pt x="176" y="0" on="1"/>
        <pt x="87" y="0" on="1"/>
      </contour>
    </TTGlyph>
    <TTGlyph name="U" xMin="50" yMin="-11" xMax="629" yMax="744">
      <contour>
        <pt x="501" y="71" on="0"/>
        <pt x="557" y="182" on="1"/>
        <pt x="629" y="140" on="1"/>
        <pt x="598" y="69" on="0"/>
        <pt x="468" y="-11" on="0"/>
        <pt x="383" y="-11" on="1"/>
        <pt x="290" y="-11" on="0"/>
        <pt x="138" y="85" on="0"/>
        <pt x="50" y="257" on="0"/>
        <pt x="50" y="367" on="1"/>
        <pt x="50" y="477" on="0"/>
        <pt x="138" y="649" on="0"/>
        <pt x="290" y="744" on="0"/>
        <pt x="383" y="744" on="1"/>
        <pt x="468" y="744" on="0"/>
        <pt x="598" y="664" on="0"/>
        <pt x="629" y="593" on="1"/>
        <pt x="557" y="551" on="1"/>
        <pt x="501" y="662" on="0"/>
        <pt x="381" y="662" on="1"/>
        <pt x="311" y="662" on="0"/>
        <pt x="203" y="588" on="0"/>
        <pt x="144" y="454" on="0"/>
        <pt x="144" y="367" on="1"/>
        <pt x="144" y="280" on="0"/>
        <pt x="203" y="145" on="0"/>
        <pt x="311" y="71" on="0"/>
        <pt x="381" y="71" on="1"/>
      </contour>
    </TTGlyph>
    <TTGlyph name="V" xMin="7" yMin="0" xMax="651" yMax="732">
      <contour>
        <pt x="106" y="732" on="1"/>
        <pt x="339" y="119" on="1"/>
        <pt x="561" y="732" on="1"/>
        <pt x="651" y="732" on="1"/>
        <pt x="373" y="0" on="1"/>
        <pt x="298" y="0" on="1"/>
        <pt x="7" y="732" on="1"/>
      </contour>
    </TTGlyph>
    <TTGlyph name="W" xMin="69" yMin="-11" xMax="513" yMax="734">
      <contour>
        <pt x="355" y="467" on="0"/>
        <pt x="457" y="406" on="0"/>
        <pt x="513" y="299" on="0"/>
        <pt x="513" y="231" on="1"/>
        <pt x="513" y="160" on="0"/>
        <pt x="451" y="50" on="0"/>
        <pt x="343" y="-11" on="0"/>
        <pt x="277" y="-11" on="1"/>
        <pt x="204" y="-11" on="0"/>
        <pt x="91" y="62" on="0"/>
        <pt x="69" y="132" on="1"/>
        <pt x="141" y="173" on="1"/>
        <pt x="159" y="122" on="0"/>
        <pt x="228" y="70" on="0"/>
        <pt x="277" y="70" on="1"/>
        <pt x="343" y="70" on="0"/>
        <pt x="419" y="158" on="0"/>
        <pt x="419" y="227" on="1"/>
        <pt x="419" y="294" on="0"/>
        <pt x="346" y="386" on="0"/>
        <pt x="277" y="386" on="1"/>
        <pt x="190" y="386" on="0"/>
        <pt x="141" y="307" on="1"/>
        <pt x="84" y="336" on="1"/>
        <pt x="134" y="734" on="1"/>
        <pt x="480" y="734" on="1"/>
        <pt x="480" y="656" on="1"/>
        <pt x="212" y="656" on="1"/>
        <pt x="183" y="439" on="1"/>
        <pt x="227" y="467" on="0"/>
        <pt x="290" y="467" on="1"/>
      </contour>
    </TTGlyph>
    <TTGlyph name="X" xMin="48" yMin="-11" xMax="523" yMax="745">
      <contour>
        <pt x="523" y="180" on="0"/>
        <pt x="400" y="-11" on="0"/>
        <pt x="285" y="-11" on="1"/>
        <pt x="171" y="-11" on="0"/>
        <pt x="48" y="181" on="0"/>
        <pt x="48" y="366" on="1"/>
        <pt x="48" y="552" on="0"/>
        <pt x="171" y="745" on="0"/>
        <pt x="285" y="745" on="1"/>
        <pt x="400" y="745" on="0"/>
        <pt x="523" y="553" on="0"/>
        <pt x="523" y="366" on="1"/>
      </contour>
      <contour>
        <pt x="143" y="217" on="0"/>
        <pt x="212" y="71" on="0"/>
        <pt x="285" y="71" on="1"/>
        <pt x="358" y="71" on="0"/>
        <pt x="428" y="216" on="0"/>
        <pt x="428" y="366" on="1"/>
        <pt x="428" y="517" on="0"/>
        <pt x="358" y="664" on="0"/>
        <pt x="285" y="664" on="1"/>
        <pt x="212" y="664" on="0"/>
        <pt x="143" y="517" on="0"/>
        <pt x="143" y="366" on="1"/>
      </contour>
    </TTGlyph>
    <TTGlyph name="Y" xMin="69" yMin="-11" xMax="513" yMax="734">
      <contour>
        <pt x="355" y="467" on="0"/>
        <pt x="457" y="406" on="0"/>
        <pt x="513" y="299" on="0"/>
        <pt x="513" y="231" on="1"/>
        <pt x="513" y="160" on="0"/>
        <pt x="451" y="50" on="0"/>
        <pt x="343" y="-11" on="0"/>
        <pt x="277" y="-11" on="1"/>
        <pt x="204" y="-11" on="0"/>
        <pt x="91" y="62" on="0"/>
        <pt x="69" y="132" on="1"/>
        <pt x="141" y="173" on="1"/>
        <pt x="159" y="122" on="0"/>
        <pt x="228" y="70" on="0"/>
        <pt x="277" y="70" on="1"/>
        <pt x="343" y="70" on="0"/>
        <pt x="419" y="158" on="0"/>
        <pt x="419" y="227" on="1"/>
        <pt x="419" y="294" on="0"/>
        <pt x="346" y="386" on="0"/>
        <pt x="277" y="386" on="1"/>
        <pt x="190" y="386" on="0"/>
        <pt x="141" y="307" on="1"/>
        <pt x="84" y="336" on="1"/>
        <pt x="134" y="734" on="1"/>
        <pt x="480" y="734" on="1"/>
        <pt x="480" y="656" on="1"/>
        <pt x="212" y="656" on="1"/>
        <pt x="183" y="439" on="1"/>
        <pt x="227" y="467" on="0"/>
        <pt x="290" y="467" on="1"/>
      </contour>
    </TTGlyph>
    <TTGlyph name="Z" xMin="48" yMin="-11" xMax="523" yMax="745">
      <contour>
        <pt x="523" y="180" on="0"/>
        <pt x="400" y="-11" on="0"/>
        <pt x="285" y="-11" on="1"/>
        <pt x="171" y="-11" on="0"/>
        <pt x="48" y="181" on="0"/>
        <pt x="48" y="366" on="1"/>
        <pt x="48" y="552" on="0"/>
        <pt x="171" y="745" on="0"/>
        <pt x="285" y="745" on="1"/>
        <pt x="400" y="745" on="0"/>
        <pt x="523" y="553" on="0"/>
        <pt x="523" y="366" on="1"/>
      </contour>
      <contour>
        <pt x="143" y="217" on="0"/>
        <pt x="212" y="71" on="0"/>
        <pt x="285" y="71" on="1"/>
        <pt x="358" y="71" on="0"/>
        <pt x="428" y="216" on="0"/>
        <pt x="428" y="366" on="1"/>
        <pt x="428" y="517" on="0"/>
        <pt x="358" y="664" on="0"/>
        <pt x="285" y="664" on="1"/>
        <pt x="212" y="664" on="0"/>
        <pt x="143" y="517" on="0"/>
        <pt x="143" y="366" on="1"/>
      </contour>
    </TTGlyph>
    <TTGlyph name="a" xMin="77" yMin="0" xMax="526" yMax="761">
      <contour>
        <pt x="311" y="304" on="1"/>
        <pt x="526" y="0" on="1"/>
        <pt x="419" y="0" on="1"/>
        <pt x="252" y="238" on="1"/>
        <pt x="162" y="138" on="1"/>
        <pt x="162" y="0" on="1"/>
        <pt x="77" y="0" on="1"/>
        <pt x="77" y="761" on="1"/>
        <pt x="162" y="761" on="1"/>
        <pt x="162" y="247" on="1"/>
        <pt x="400" y="519" on="1"/>
        <pt x="504" y="519" on="1"/>
      </contour>
    </TTGlyph>
    <TTGlyph name="b" xMin="20" yMin="0" xMax="377" yMax="772">
      <contour>
        <pt x="238" y="692" on="0"/>
        <pt x="195" y="638" on="0"/>
        <pt x="195" y="570" on="1"/>
        <pt x="195" y="520" on="1"/>
        <pt x="330" y="520" on="1"/>
        <pt x="330" y="447" on="1"/>
        <pt x="195" y="447" on="1"/>
        <pt x="195" y="0" on="1"/>
        <pt x="110" y="0" on="1"/>
        <pt x="110" y="447" on="1"/>
        <pt x="20" y="447" on="1"/>
        <pt x="20" y="520" on="1"/>
        <pt x="110" y="520" on="1"/>
        <pt x="110" y="572" on="1"/>
        <pt x="110" y="676" on="0"/>
        <pt x="204" y="772" on="0"/>
        <pt x="276" y="772" on="1"/>
        <pt x="308" y="772" on="0"/>
        <pt x="361" y="755" on="0"/>
        <pt x="377" y="742" on="1"/>
        <pt x="343" y="674" on="1"/>
        <pt x="315" y="692" on="0"/>
        <pt x="280" y="692" on="1"/>
      </contour>
    </TTGlyph>
    <TTGlyph name="c" xMin="47" yMin="-11" xMax="481" yMax="531">
      <contour>
        <pt x="371" y="69" on="0"/>
        <pt x="414" y="137" on="1"/>
        <pt x="481" y="98" on="1"/>
        <pt x="453" y="43" on="0"/>
        <pt x="358" y="-11" on="0"/>
        <pt x="297" y="-11" on="1"/>
        <pt x="227" y="-11" on="0"/>
        <pt x="113" y="57" on="0"/>
        <pt x="47" y="180" on="0"/>
        <pt x="47" y="260" on="1"/>
        <pt x="47" y="340" on="0"/>
        <pt x="113" y="463" on="0"/>
        <pt x="227" y="531" on="0"/>
        <pt x="297" y="531" on="1"/>
        <pt x="358" y="531" on="0"/>
        <pt x="453" y="477" on="0"/>
        <pt x="481" y="422" on="1"/>
        <pt x="414" y="383" on="1"/>
        <pt x="371" y="451" on="0"/>
        <pt x="295" y="451" on="1"/>
        <pt x="225" y="451" on="0"/>
        <pt x="137" y="349" on="0"/>
        <pt x="137" y="260" on="1"/>
        <pt x="137" y="171" on="0"/>
        <pt x="225" y="69" on="0"/>
        <pt x="295" y="69" on="1"/>
      </contour>
    </TTGlyph>
    <TTGlyph name="d" xMin="10" yMin="0" xMax="505" yMax="519">
      <contour>
        <pt x="107" y="519" on="1"/>
        <pt x="267" y="113" on="1"/>
        <pt x="417" y="519" on="1"/>
        <pt x="505" y="519" on="1"/>
        <pt x="296" y="0" on="1"/>
        <pt x="227" y="0" on="1"/>
        <pt x="10" y="519" on="1"/>
      </contour>
    </TTGlyph>
    <TTGlyph name="e" xMin="69" yMin="-11" xMax="513" yMax="734">
      <contour>
        <pt x="355" y="467" on="0"/>
        <pt x="457" y="406" on="0"/>
        <pt x="513" y="299" on="0"/>
        <pt x="513" y="231" on="1"/>
        <pt x="513" y="160" on="0"/>
        <pt x="451" y="50" on="0"/>
        <pt x="343" y="-11" on="0"/>
        <pt x="277" y="-11" on="1"/>
        <pt x="204" y="-11" on="0"/>
        <pt x="91" y="62" on="0"/>
        <pt x="69" y="132" on="1"/>
        <pt x="141" y="173" on="1"/>
        <pt x="159" y="122" on="0"/>
        <pt x="228" y="70" on="0"/>
        <pt x="277" y="70" on="1"/>
        <pt x="343" y="70" on="0"/>
        <pt x="419" y="158" on="0"/>
        <pt x="419" y="227" on="1"/>
        <pt x="419" y="294" on="0"/>
        <pt x="346" y="386" on="0"/>
        <pt x="277" y="386" on="1"/>
        <pt x="190" y="386" on="0"/>
        <pt x="141" y="307" on="1"/>
        <pt x="84" y="336" on="1"/>
        <pt x="134" y="734" on="1"/>
        <pt x="480" y="734" on="1"/>
        <pt x="480" y="656" on="1"/>
        <pt x="212" y="656" on="1"/>
        <pt x="183" y="439" on="1"/>
        <pt x="227" y="467" on="0"/>
        <pt x="290" y="467" on="1"/>
      </contour>
    </TTGlyph>
    <TTGlyph name="eight" xMin="69" yMin="-11" xMax="513" yMax="734">
      <contour>
        <pt x="355" y="467" on="0"/>
        <pt x="457" y="406" on="0"/>
        <pt x="513" y="299" on="0"/>
        <pt x="513" y="231" on="1"/>
        <pt x="513" y="160" on="0"/>
        <pt x="451" y="50" on="0"/>
        <pt x="343" y="-11" on="0"/>
        <pt x="277" y="-11" on="1"/>
        <pt x="204" y="-11" on="0"/>
        <pt x="91" y="62" on="0"/>
        <pt x="69" y="132" on="1"/>
        <pt x="141" y="173" on="1"/>
        <pt x="159" y="122" on="0"/>
        <pt x="228" y="70" on="0"/>
        <pt x="277" y="70" on="1"/>
        <pt x="343" y="70" on="0"/>
        <pt x="419" y="158" on="0"/>
        <pt x="419" y="227" on="1"/>
        <pt x="419" y="294" on="0"/>
        <pt x="346" y="386" on="0"/>
        <pt x="277" y="386" on="1"/>
        <pt x="190" y="386" on="0"/>
        <pt x="141" y="307" on="1"/>
        <pt x="84" y="336" on="1"/>
        <pt x="134" y="734" on="1"/>
        <pt x="480" y="734" on="1"/>
        <pt x="480" y="656" on="1"/>
        <pt x="212" y="656" on="1"/>
        <pt x="183" y="439" on="1"/>
        <pt x="227" y="467" on="0"/>
        <pt x="290" y="467" on="1"/>
      </contour>
    </TTGlyph>
    <TTGlyph name="f" xMin="48" yMin="-11" xMax="523" yMax="745">
      <contour>
        <pt x="523" y="180" on="0"/>
        <pt x="400" y="-11" on="0"/>
        <pt x="285" y="-11" on="1"/>
        <pt x="171" y="-11" on="0"/>
        <pt x="48" y="181" on="0"/>
        <pt x="48" y="366" on="1"/>
        <pt x="48" y="552" on="0"/>
        <pt x="171" y="745" on="0"/>
        <pt x="285" y="745" on="1"/>
        <pt x="400" y="745" on="0"/>
        <pt x="523" y="553" on="0"/>
        <pt x="523" y="366" on="1"/>
      </contour>
      <contour>
        <pt x="143" y="217" on="0"/>
        <pt x="212" y="71" on="0"/>
        <pt x="285" y="71" on="1"/>
        <pt x="358" y="71" on="0"/>
        <pt x="428" y="216" on="0"/>
        <pt x="428" y="366" on="1"/>
        <pt x="428" y="517" on="0"/>
        <pt x="358" y="664" on="0"/>
        <pt x="285" y="664" on="1"/>
        <pt x="212" y="664" on="0"/>
        <pt x="143" y="517" on="0"/>
        <pt x="143" y="366" on="1"/>
      </contour>
    </TTGlyph>
    <TTGlyph name="five" xMin="69" yMin="-11" xMax="513" yMax="734">
      <contour>
        <pt x="355" y="467" on="0"/>
        <pt x="457" y="406" on="0"/>
        <pt x="513" y="299" on="0"/>
        <pt x="513" y="231" on="1"/>
        <pt x="513" y="160" on="0"/>
        <pt x="451" y="50" on="0"/>
        <pt x="343" y="-11" on="0"/>
        <pt x="277" y="-11" on="1"/>
        <pt x="204" y="-11" on="0"/>
        <pt x="91" y="62" on="0"/>
        <pt x="69" y="132" on="1"/>
        <pt x="141" y="173" on="1"/>
        <pt x="159" y="122" on="0"/>
        <pt x="228" y="70" on="0"/>
        <pt x="277" y="70" on="1"/>
        <pt x="343" y="70" on="0"/>
        <pt x="419" y="158" on="0"/>
        <pt x="419" y="227" on="1"/>
        <pt x="419" y="294" on="0"/>
        <pt x="346" y="386" on="0"/>
        <pt x="277" y="386" on="1"/>
        <pt x="190" y="386" on="0"/>
        <pt x="141" y="307" on="1"/>
        <pt x="84" y="336" on="1"/>
        <pt x="134" y="734" on="1"/>
        <pt x="480" y="734" on="1"/>
        <pt x="480" y="656" on="1"/>
        <pt x="212" y="656" on="1"/>
        <pt x="183" y="439" on="1"/>
        <pt x="227" y="467" on="0"/>
        <pt x="290" y="467" on="1"/>
      </contour>
    </TTGlyph>
    <TTGlyph name="four" xMin="48" yMin="-11" xMax="523" yMax="745">
      <contour>
        <pt x="523" y="180" on="0"/>
        <pt x="400" y="-11" on="0"/>
        <pt x="285" y="-11" on="1"/>
        <pt x="171" y="-11" on="0"/>
        <pt x="48" y="181" on="0"/>
        <pt x="48" y="366" on="1"/>
        <pt x="48" y="552" on="0"/>
        <pt x="171" y="745" on="0"/>
        <pt x="285" y="745" on="1"/>
        <pt x="400" y="745" on="0"/>
        <pt x="523" y="553" on="0"/>
        <pt x="523" y="366" on="1"/>
      </contour>
      <contour>
        <pt x="143" y="217" on="0"/>
        <pt x="212" y="71" on="0"/>
        <pt x="285" y="71" on="1"/>
        <pt x="358" y="71" on="0"/>
        <pt x="428" y="216" on="0"/>
        <pt x="428" y="366" on="1"/>
        <pt x="428" y="517" on="0"/>
        <pt x="358" y="664" on="0"/>
        <pt x="285" y="664" on="1"/>
        <pt x="212" y="664" on="0"/>
        <pt x="143" y="517" on="0"/>
        <pt x="143" y="366" on="1"/>
      </contour>
    </TTGlyph>
    <TTGlyph name="g" xMin="77" yMin="0" xMax="526" yMax="761">
      <contour>
        <pt x="311" y="304" on="1"/>
        <pt x="526" y="0" on="1"/>
        <pt x="419" y="0" on="1"/>
        <pt x="252" y="238" on="1"/>
        <pt x="162" y="138" on="1"/>
        <pt x="162" y="0" on="1"/>
        <pt x="77" y="0" on="1"/>
        <pt x="77" y="761" on="1"/>
        <pt x="162" y="761" on="1"/>
        <pt x="162" y="247" on="1"/>
        <pt x="400" y="519" on="1"/>
        <pt x="504" y="519" on="1"/>
      </contour>
    </TTGlyph>
    <TTGlyph name="h" xMin="20" yMin="0" xMax="377" yMax="772">
      <contour>
        <pt x="238" y="692" on="0"/>
        <pt x="195" y="638" on="0"/>
        <pt x="195" y="570" on="1"/>
        <pt x="195" y="520" on="1"/>
        <pt x="330" y="520" on="1"/>
        <pt x="330" y="447" on="1"/>
        <pt x="195" y="447" on="1"/>
        <pt x="195" y="0" on="1"/>
        <pt x="110" y="0" on="1"/>
        <pt x="110" y="447" on="1"/>
        <pt x="20" y="447" on="1"/>
        <pt x="20" y="520" on="1"/>
        <pt x="110" y="520" on="1"/>
        <pt x="110" y="572" on="1"/>
        <pt x="110" y="676" on="0"/>
        <pt x="204" y="772" on="0"/>
        <pt x="276" y="772" on="1"/>
        <pt x="308" y="772" on="0"/>
        <pt x="361" y="755" on="0"/>
        <pt x="377" y="742" on="1"/>
        <pt x="343" y="674" on="1"/>
        <pt x="315" y="692" on="0"/>
        <pt x="280" y="692" on="1"/>
      </contour>
    </TTGlyph>
    <TTGlyph name="i" xMin="47" yMin="-11" xMax="481" yMax="531">
      <contour>
        <pt x="371" y="69" on="0"/>
        <pt x="414" y="137" on="1"/>
        <pt x="481" y="98" on="1"/>
        <pt x="453" y="43" on="0"/>
        <pt x="358" y="-11" on="0"/>
        <pt x="297" y="-11" on="1"/>
        <pt x="227" y="-11" on="0"/>
        <pt x="113" y="57" on="0"/>
        <pt x="47" y="180" on="0"/>
        <pt x="47" y="260" on="1"/>
        <pt x="47" y="340" on="0"/>
        <pt x="113" y="463" on="0"/>
        <pt x="227" y="531" on="0"/>
        <pt x="297" y="531" on="1"/>
        <pt x="358" y="531" on="0"/>
        <pt x="453" y="477" on="0"/>
        <pt x="481" y="422" on="1"/>
        <pt x="414" y="383" on="1"/>
        <pt x="371" y="451" on="0"/>
        <pt x="295" y="451" on="1"/>
        <pt x="225" y="451" on="0"/>
        <pt x="137" y="349" on="0"/>
        <pt x="137" y="260" on="1"/>
        <pt x="137" y="171" on="0"/>
        <pt x="225" y="69" on="0"/>
        <pt x="295" y="69" on="1"/>
      </contour>
    </TTGlyph>
    <TTGlyph name="j" xMin="10" yMin="0" xMax="505" yMax="519">
      <contour>
        <pt x="107" y="519" on="1"/>
        <pt x="267" y="113" on="1"/>
        <pt x="417" y="519" on="1"/>
        <pt x="505" y="519" on="1"/>
        <pt x="296" y="0" on="1"/>
        <pt x="227" y="0" on="1"/>
        <pt x="10" y="519" on="1"/>
      </contour>
    </TTGlyph>
    <TTGlyph name="k" xMin="69" yMin="-11" xMax="513" yMax="734">
      <contour>
        <pt x="355" y="467" on="0"/>
        <pt x="457" y="406" on="0"/>
        <pt x="513" y="299" on="0"/>
        <pt x="513" y="231" on="1"/>
        <pt x="513" y="160" on="0"/>
        <pt x="451" y="50" on="0"/>
        <pt x="343" y="-11" on="0"/>
        <pt x="277" y="-11" on="1"/>
        <pt x="204" y="-11" on="0"/>
        <pt x="91" y="62" on="0"/>
        <pt x="69" y="132" on="1"/>
        <pt x="141" y="173" on="1"/>
        <pt x="159" y="122" on="0"/>
        <pt x="228" y="70" on="0"/>
        <pt x="277" y="70" on="1"/>
        <pt x="343" y="70" on="0"/>
        <pt x="419" y="158" on="0"/>
        <pt x="419" y="227" on="1"/>
        <pt x="419" y="294" on="0"/>
        <pt x="346" y="386" on="0"/>
        <pt x="277" y="386" on="1"/>
        <pt x="190" y="386" on="0"/>
        <pt x="141" y="307" on="1"/>
        <pt x="84" y="336" on="1"/>
        <pt x="134" y="734" on="1"/>
        <pt x="480" y="734" on="1"/>
        <pt x="480" y="656" on="1"/>
        <pt x="212" y="656" on="1"/>
        <pt x="183" y="439" on="1"/>
        <pt x="227" y="467" on="0"/>
        <pt x="290" y="467" on="1"/>
      </contour>
    </TTGlyph>
    <TTGlyph name="l" xMin="48" yMin="-11" xMax="523" yMax="745">
      <contour>
        <pt x="523" y="180" on="0"/>
        <pt x="400" y="-11" on="0"/>
        <pt x="285" y="-11" on="1"/>
        <pt x="171" y="-11" on="0"/>
        <pt x="48" y="181" on="0"/>
        <pt x="48" y="366" on="1"/>
        <pt x="48" y="552" on="0"/>
        <pt x="171" y="745" on="0"/>
        <pt x="285" y="745" on="1"/>
        <pt x="400" y="745" on="0"/>
        <pt x="523" y="553" on="0"/>
        <pt x="523" y="366" on="1"/>
      </contour>
      <contour>
        <pt x="143" y="217" on="0"/>
        <pt x="212" y="71" on="0"/>
        <pt x="285" y="71" on="1"/>
        <pt x="358" y="71" on="0"/>
        <pt x="428" y="216" on="0"/>
        <pt x="428" y="366" on="1"/>
        <pt x="428" y="517" on="0"/>
        <pt x="358" y="664" on="0"/>
        <pt x="285" y="664" on="1"/>
        <pt x="212" y="664" on="0"/>
        <pt x="143" y="517" on="0"/>
        <pt x="143" y="366" on="1"/>
      </contour>
    </TTGlyph>
    <TTGlyph name="m" xMin="77" yMin="0" xMax="526" yMax="761">
      <contour>
        <pt x="311" y="304" on="1"/>
        <pt x="526" y="0" on="1"/>
        <pt x="419" y="0" on="1"/>
        <pt x="252" y="238" on="1"/>
        <pt x="162" y="138" on="1"/>
        <pt x="162" y="0" on="1"/>
        <pt x="77" y="0" on="1"/>
        <pt x="77" y="761" on="1"/>
        <pt x="162" y="761" on="1"/>
        <pt x="162" y="247" on="1"/>
        <pt x="400" y="519" on="1"/>
        <pt x="504" y="519" on="1"/>
      </contour>
    </TTGlyph>
    <TTGlyph name="n" xMin="20" yMin="0" xMax="377" yMax="772">
      <contour>
        <pt x="238" y="692" on="0"/>
        <pt x="195" y="638" on="0"/>
        <pt x="195" y="570" on="1"/>
        <pt x="195" y="520" on="1"/>
        <pt x="330" y="520" on="1"/>
        <pt x="330" y="447" on="1"/>
        <pt x="195" y="447" on="1"/>
        <pt x="195" y="0" on="1"/>
        <pt x="110" y="0" on="1"/>
        <pt x="110" y="447" on="1"/>
        <pt x="20" y="447" on="1"/>
        <pt x="20" y="520" on="1"/>
        <pt x="110" y="520" on="1"/>
        <pt x="110" y="572" on="1"/>
        <pt x="110" y="676" on="0"/>
        <pt x="204" y="772" on="0"/>
        <pt x="276" y="772" on="1"/>
        <pt x="308" y="772" on="0"/>
        <pt x="361" y="755" on="0"/>
        <pt x="377" y="742" on="1"/>
        <pt x="343" y="674" on="1"/>
        <pt x="315" y="692" on="0"/>
        <pt x="280" y="692" on="1"/>
      </contour>
    </TTGlyph>
    <TTGlyph name="nine" xMin="48" yMin="-11" xMax="523" yMax="745">
      <contour>
        <pt x="523" y="180" on="0"/>
        <pt x="400" y="-11" on="0"/>
        <pt x="285" y="-11" on="1"/>
        <pt x="171" y="-11" on="0"/>
        <pt x="48" y="181" on="0"/>
        <pt x="48" y="366" on="1"/>
        <pt x="48" y="552" on="0"/>
        <pt x="171" y="745" on="0"/>
        <pt x="285" y="745" on="1"/>
        <pt x="400" y="745" on="0"/>
        <pt x="523" y="553" on="0"/>
        <pt x="523" y="366" on="1"/>
      </contour>
      <contour>
        <pt x="143" y="217" on="0"/>
        <pt x="212" y="71" on="0"/>
        <pt x="285" y="71" on="1"/>
        <pt x="358" y="71" on="0"/>
        <pt x="428" y="216" on="0"/>
        <pt x="428" y="366" on="1"/>
        <pt x="428" y="517" on="0"/>
        <pt x="358" y="664" on="0"/>
        <pt x="285" y="664" on="1"/>
        <pt x="212" y="664" on="0"/>
        <pt x="143" y="517" on="0"/>
        <pt x="143" y="366" on="1"/>
      </contour>
    </TTGlyph>
    <TTGlyph name="o" xMin="47" yMin="-11" xMax="481" yMax="531">
      <contour>
        <pt x="371" y="69" on="0"/>
        <pt x="414" y="137" on="1"/>
        <pt x="481" y="98" on="1"/>
        <pt x="453" y="43" on="0"/>
        <pt x="358" y="-11" on="0"/>
        <pt x="297" y="-11" on="1"/>
        <pt x="227" y="-11" on="0"/>
        <pt x="113" y="57" on="0"/>
        <pt x="47" y="180" on="0"/>
        <pt x="47" y="260" on="1"/>
        <pt x="47" y="340" on="0"/>
        <pt x="113" y="463" on="0"/>
        <pt x="227" y="531" on="0"/>
        <pt x="297" y="531" on="1"/>
        <pt x="358" y="531" on="0"/>
        <pt x="453" y="477" on="0"/>
        <pt x="481" y="422" on="1"/>
        <pt x="414" y="383" on="1"/>
        <pt x="371" y="451" on="0"/>
        <pt x="295" y="451" on="1"/>
        <pt x="225" y="451" on="0"/>
        <pt x="137" y="349" on="0"/>
        <pt x="137" y="260" on="1"/>
        <pt x="137" y="171" on="0"/>
        <pt x="225" y="69" on="0"/>
        <pt x="295" y="69" on="1"/>
      </contour>
    </TTGlyph>
    <TTGlyph name="one" xMin="48" yMin="-11" xMax="523" yMax="745">
      <contour>
        <pt x="523" y="180" on="0"/>
        <pt x="400" y="-11" on="0"/>
        <pt x="285" y="-11" on="1"/>
        <pt x="171" y="-11" on="0"/>
        <pt x="48" y="181" on="0"/>
        <pt x="48" y="366" on="1"/>
        <pt x="48" y="552" on="0"/>
        <pt x="171" y="745" on="0"/>
        <pt x="285" y="745" on="1"/>
        <pt x="400" y="745" on="0"/>
        <pt x="523" y="553" on="0"/>
        <pt x="523" y="366" on="1"/>
      </contour>
      <contour>
        <pt x="143" y="217" on="0"/>
        <pt x="212" y="71" on="0"/>
        <pt x="285" y="71" on="1"/>
        <pt x="358" y="71" on="0"/>
        <pt x="428" y="216" on="0"/>
        <pt x="428" y="366" on="1"/>
        <pt x="428" y="517" on="0"/>
        <pt x="358" y="664" on="0"/>
        <pt x="285" y="664" on="1"/>
        <pt x="212" y="664" on="0"/>
        <pt x="143" y="517" on="0"/>
        <pt x="143" y="366" on="1"/>
      </contour>
    </TTGlyph>
    <TTGlyph name="p" xMin="10" yMin="0" xMax="505" yMax="519">
      <contour>
        <pt x="107" y="519" on="1"/>
        <pt x="267" y="113" on="1"/>
        <pt x="417" y="519" on="1"/>
        <pt x="505" y="519" on="1"/>
        <pt x="296" y="0" on="1"/>
        <pt x="227" y="0" on="1"/>
        <pt x="10" y="519" on="1"/>
      </contour>
    </TTGlyph>
    <TTGlyph name="q" xMin="69" yMin="-11" xMax="513" yMax="734">
      <contour>
        <pt x="355" y="467" on="0"/>
        <pt x="457" y="406" on="0"/>
        <pt x="513" y="299" on="0"/>
        <pt x="513" y="231" on="1"/>
        <pt x="513" y="160" on="0"/>
        <pt x="451" y="50" on="0"/>
        <pt x="343" y="-11" on="0"/>
        <pt x="277" y="-11" on="1"/>
        <pt x="204" y="-11" on="0"/>
        <pt x="91" y="62" on="0"/>
        <pt x="69" y="132" on="1"/>
        <pt x="141" y="173" on="1"/>
        <pt x="159" y="122" on="0"/>
        <pt x="228" y="70" on="0"/>
        <pt x="277" y="70" on="1"/>
        <pt x="343" y="70" on="0"/>
        <pt x="419" y="158" on="0"/>
        <pt x="419" y="227" on="1"/>
        <pt x="419" y="294" on="0"/>
        <pt x="346" y="386" on="0"/>
        <pt x="277" y="386" on="1"/>
        <pt x="190" y="386" on="0"/>
        <pt x="141" y="307" on="1"/>
        <pt x="84" y="336" on="1"/>
        <pt x="134" y="734" on="1"/>
        <pt x="480" y="734" on="1"/>
        <pt x="480" y="656" on="1"/>
        <pt x="212" y="656" on="1"/>
        <pt x="183" y="439" on="1"/>
        <pt x="227" y="467" on="0"/>
        <pt x="290" y="467" on="1"/>
      </contour>
    </TTGlyph>
    <TTGlyph name="r" xMin="48" yMin="-11" xMax="523" yMax="745">
      <contour>
        <pt x="523" y="180" on="0"/>
        <pt x="400" y="-11" on="0"/>
        <pt x="285" y="-11" on="1"/>
        <pt x="171" y="-11" on="0"/>
        <pt x="48" y="181" on="0"/>
        <pt x="48" y="366" on="1"/>
        <pt x="48" y="552" on="0"/>
        <pt x="171" y="745" on="0"/>
        <pt x="285" y="745" on="1"/>
        <pt x="400" y="745" on="0"/>
        <pt x="523" y="553" on="0"/>
        <pt x="523" y="366" on="1"/>
      </contour>
      <contour>
        <pt x="143" y="217" on="0"/>
        <pt x="212" y="71" on="0"/>
        <pt x="285" y="71" on="1"/>
        <pt x="358" y="71" on="0"/>
        <pt x="428" y="216" on="0"/>
        <pt x="428" y="366" on="1"/>
        <pt x="428" y="517" on="0"/>
        <pt x="358" y="664" on="0"/>
        <pt x="285" y="664" on="1"/>
        <pt x="212" y="664" on="0"/>
        <pt x="143" y="517" on="0"/>
        <pt x="143" y="366" on="1"/>
      </contour>
    </TTGlyph>
    <TTGlyph name="s" xMin="77" yMin="0" xMax="526" yMax="761">
      <contour>
        <pt x="311" y="304" on="1"/>
        <pt x="526" y="0" on="1"/>
        <pt x="419" y="0" on="1"/>
        <pt x="252" y="238" on="1"/>
        <pt x="162" y="138" on="1"/>
        <pt x="162" y="0" on="1"/>
        <pt x="77" y="0" on="1"/>
        <pt x="77" y="761" on="1"/>
        <pt x="162" y="761" on="1"/>
        <pt x="162" y="247" on="1"/>
        <pt x="400" y="519" on="1"/>
        <pt x="504" y="519" on="1"/>
      </contour>
    </TTGlyph>
    <TTGlyph name="seven" xMin="7" yMin="0" xMax="651" yMax="732">
      <contour>
        <pt x="106" y="732" on="1"/>
        <pt x="339" y="119" on="1"/>
        <pt x="561" y="732" on="1"/>
        <pt x="651" y="732" on="1"/>
        <pt x="373" y="0" on="1"/>
        <pt x="298" y="0" on="1"/>
        <pt x="7" y="732" on="1"/>
      </contour>
    </TTGlyph>
    <TTGlyph name="six" xMin="48" yMin="-11" xMax="523" yMax="745">
      <contour>
        <pt x="523" y="180" on="0"/>
        <pt x="400" y="-11" on="0"/>
        <pt x="285" y="-11" on="1"/>
        <pt x="171" y="-11" on="0"/>
        <pt x="48" y="181" on="0"/>
        <pt x="48" y="366" on="1"/>
        <pt x="48" y="552" on="0"/>
        <pt x="171" y="745" on="0"/>
        <pt x="285" y="745" on="1"/>
        <pt x="400" y="745" on="0"/>
        <pt x="523" y="553" on="0"/>
        <pt x="523" y="366" on="1"/>
      </contour>
      <contour>
        <pt x="143" y="217" on="0"/>
        <pt x="212" y="71" on="0"/>
        <pt x="285" y="71" on="1"/>
        <pt x="358" y="71" on="0"/>
        <pt x="428" y="216" on="0"/>
        <pt x="428" y="366" on="1"/>
        <pt x="428" y="517" on="0"/>
        <pt x="358" y="664" on="0"/>
        <pt x="285" y="664" on="1"/>
        <pt x="212" y="664" on="0"/>
        <pt x="143" y="517" on="0"/>
        <pt x="143" y="366" on="1"/>
      </contour>
    </TTGlyph>
    <TTGlyph name="t" xMin="20" yMin="0" xMax="377" yMax="772">
      <contour>
        <pt x="238" y="692" on="0"/>
        <pt x="195" y="638" on="0"/>
        <pt x="195" y="570" on="1"/>
        <pt x="195" y="520" on="1"/>
        <pt x="330" y="520" on="1"/>
        <pt x="330" y="447" on="1"/>
        <pt x="195" y="447" on="1"/>
        <pt x="195" y="0" on="1"/>
        <pt x="110" y="0" on="1"/>
        <pt x="110" y="447" on="1"/>
        <pt x="20" y="447" on="1"/>
        <pt x="20" y="520" on="1"/>
        <pt x="110" y="520" on="1"/>
        <pt x="110" y="572" on="1"/>
        <pt x="110" y="676" on="0"/>
        <pt x="204" y="772" on="0"/>
        <pt x="276" y="772" on="1"/>
        <pt x="308" y="772" on="0"/>
        <pt x="361" y="755" on="0"/>
        <pt x="377" y="742" on="1"/>
        <pt x="343" y="674" on="1"/>
        <pt x="315" y="692" on="0"/>
        <pt x="280" y="692" on="1"/>
      </contour>
    </TTGlyph>
    <TTGlyph name="three" xMin="69" yMin="-11" xMax="513" yMax="734">
      <contour>
        <pt x="355" y="467" on="0"/>
        <pt x="457" y="406" on="0"/>
        <pt x="513" y="299" on="0"/>
        <pt x="513" y="231" on="1"/>
        <pt x="513" y="160" on="0"/>
        <pt x="451" y="50" on="0"/>
        <pt x="343" y="-11" on="0"/>
        <pt x="277" y="-11" on="1"/>
        <pt x="204" y="-11" on="0"/>
        <pt x="91" y="62" on="0"/>
        <pt x="69" y="132" on="1"/>
        <pt x="141" y="173" on="1"/>
        <pt x="159" y="122" on="0"/>
        <pt x="228" y="70" on="0"/>
        <pt x="277" y="70" on="1"/>
        <pt x="343" y="70" on="0"/>
        <pt x="419" y="158" on="0"/>
        <pt x="419" y="227" on="1"/>
        <pt x="419" y="294" on="0"/>
        <pt x="346" y="386" on="0"/>
        <pt x="277" y="386" on="1"/>
        <pt x="190" y="386" on="0"/>
        <pt x="141" y="307" on="1"/>
        <pt x="84" y="336" on="1"/>
        <pt x="134" y="734" on="1"/>
        <pt x="480" y="734" on="1"/>
        <pt x="480" y="656" on="1"/>
        <pt x="212" y="656" on="1"/>
        <pt x="183" y="439" on="1"/>
        <pt x="227" y="467" on="0"/>
        <pt x="290" y="467" on="1"/>
      </contour>
    </TTGlyph>
    <TTGlyph name="two" xMin="7" yMin="0" xMax="651" yMax="732">
      <contour>
        <pt x="106" y="732" on="1"/>
        <pt x="339" y="119" on="1"/>
        <pt x="561" y="732" on="1"/>
        <pt x="651" y="732" on="1"/>
        <pt x="373" y="0" on="1"/>
        <pt x="298" y="0" on="1"/>
        <pt x="7" y="732" on="1"/>
      </contour>
    </TTGlyph>
    <TTGlyph name="u" xMin="47" yMin="-11" xMax="481" yMax="531">
      <contour>
        <pt x="371" y="69" on="0"/>
        <pt x="414" y="137" on="1"/>
        <pt x="481" y="98" on="1"/>
        <pt x="453" y="43" on="0"/>
        <pt x="358" y="-11" on="0"/>
        <pt x="297" y="-11" on="1"/>
        <pt x="227" y="-11" on="0"/>
        <pt x="113" y="57" on="0"/>
        <pt x="47" y="180" on="0"/>
        <pt x="47" y="260" on="1"/>
        <pt x="47" y="340" on="0"/>
        <pt x="113" y="463" on="0"/>
        <pt x="227" y="531" on="0"/>
        <pt x="297" y="531" on="1"/>
        <pt x="358" y="531" on="0"/>
        <pt x="453" y="477" on="0"/>
        <pt x="481" y="422" on="1"/>
        <pt x="414" y="383" on="1"/>
        <pt x="371" y="451" on="0"/>
        <pt x="295" y="451" on="1"/>
        <pt x="225" y="451" on="0"/>
        <pt x="137" y="349" on="0"/>
        <pt x="137" y="260" on="1"/>
        <pt x="137" y="171" on="0"/>
        <pt x="225" y="69" on="0"/>
        <pt x="295" y="69" on="1"/>
      </contour>
    </TTGlyph>
    <TTGlyph name="uni4E00" xMin="46" yMin="-64" xMax="953" yMax="839">
      <contour>
        <pt x="553" y="684" on="1"/>
        <pt x="553" y="598" on="1"/>
        <pt x="953" y="598" on="1"/>
        <pt x="953" y="531" on="1"/>
        <pt x="46" y="531" on="1"/>
        <pt x="46" y="598" on="1"/>
        <pt x="205" y="598" on="1"/>
        <pt x="205" y="790" on="1"/>
        <pt x="284" y="790" on="1"/>
        <pt x="284" y="598" on="1"/>
        <pt x="473" y="598" on="1"/>
        <pt x="473" y="839" on="1"/>
        <pt x="553" y="839" on="1"/>
        <pt x="553" y="750" on="1"/>
        <pt x="878" y="750" on="1"/>
        <pt x="878" y="684" on="1"/>
      </contour>
      <contour>
        <pt x="174" y="-64" on="1"/>
        <pt x="174" y="450" on="1"/>
        <pt x="832" y="450" on="1"/>
        <pt x="832" y="55" on="1"/>
        <pt x="832" y="6" on="0"/>
        <pt x="811" y="-43" on="0"/>
        <pt x="753" y="-62" on="0"/>
        <pt x="694" y="-62" on="1"/>
        <pt x="659" y="-62" on="0"/>
        <pt x="589" y="-58" on="1"/>
        <pt x="577" y="10" on="1"/>
        <pt x="631" y="4" on="0"/>
        <pt x="685" y="4" on="1"/>
        <pt x="714" y="4" on="0"/>
        <pt x="741" y="13" on="0"/>
        <pt x="750" y="36" on="0"/>
        <pt x="750" y="62" on="1"/>
        <pt x="750" y="108" on="1"/>
        <pt x="256" y="108" on="1"/>
        <pt x="256" y="-64" on="1"/>
      </contour>
      <contour>
        <pt x="750" y="308" on="1"/>
        <pt x="750" y="384" on="1"/>
        <pt x="256" y="384" on="1"/>
        <pt x="256" y="308" on="1"/>
      </contour>
      <contour>
        <pt x="256" y="246" on="1"/>
        <pt x="256" y="171" on="1"/>
        <pt x="750" y="171" on="1"/>
        <pt x="750" y="246" on="1"/>
      </contour>
    </TTGlyph>
    <TTGlyph name="uni4E01" xMin="32" yMin="-71" xMax="967" yMax="843">
      <contour>
        <pt x="343" y="618" on="1"/>
        <pt x="577" y="618" on="1"/>
        <pt x="577" y="689" on="1"/>
        <pt x="321" y="689" on="1"/>
        <pt x="321" y="758" on="1"/>
        <pt x="577" y="758" on="1"/>
        <pt x="577" y="843" on="1"/>
        <pt x="653" y="843" on="1"/>
        <pt x="653" y="758" on="1"/>
        <pt x="934" y="758" on="1"/>
        <pt x="934" y="689" on="1"/>
        <pt x="653" y="689" on="1"/>
        <pt x="653" y="618" on="1"/>
        <pt x="896" y="618" on="1"/>
        <pt x="896" y="386" on="1"/>
        <pt x="343" y="386" on="1"/>
      </contour>
      <contour>
        <pt x="313" y="799" on="1"/>
        <pt x="273" y="733" on="0"/>
        <pt x="147" y="577" on="0"/>
        <pt x="86" y="517" on="1"/>
        <pt x="43" y="585" on="1"/>
        <pt x="96" y="638" on="0"/>
        <pt x="216" y="785" on="0"/>
        <pt x="251" y="842" on="1"/>
      </contour>
      <contour>
        <pt x="302" y="548" on="1"/>
        <pt x="274" y="491" on="0"/>
        <pt x="232" y="428" on="1"/>
        <pt x="232" y="-71" on="1"/>
        <pt x="156" y="-71" on="1"/>
        <pt x="156" y="324" on="1"/>
        <pt x="110" y="267" on="0"/>
        <pt x="65" y="222" on="1"/>
        <pt x="32" y="295" on="1"/>
        <pt x="83" y="347" on="0"/>
        <pt x="206" y="518" on="0"/>
        <pt x="241" y="587" on="1"/>
      </contour>
      <contour>
        <pt x="505" y="556" on="1"/>
        <pt x="410" y="556" on="1"/>
        <pt x="410" y="447" on="1"/>
        <pt x="505" y="447" on="1"/>
      </contour>
      <contour>
        <pt x="668" y="447" on="1"/>
        <pt x="668" y="556" on="1"/>
        <pt x="568" y="556" on="1"/>
        <pt x="568" y="447" on="1"/>
      </contour>
      <contour>
        <pt x="733" y="447" on="1"/>
        <pt x="828" y="447" on="1"/>
        <pt x="828" y="556" on="1"/>
        <pt x="733" y="556" on="1"/>
      </contour>
      <contour>
        <pt x="946" y="318" on="1"/>
        <pt x="946" y="248" on="1"/>
        <pt x="623" y="248" on="1"/>
        <pt x="657" y="211" on="0"/>
        <pt x="713" y="139" on="1"/>
        <pt x="659" y="96" on="1"/>
        <pt x="639" y="124" on="0"/>
        <pt x="579" y="201" on="0"/>
        <pt x="565" y="215" on="1"/>
        <pt x="606" y="248" on="1"/>
        <pt x="299" y="248" on="1"/>
        <pt x="299" y="318" on="1"/>
      </contour>
      <contour>
        <pt x="840" y="215" on="1"/>
        <pt x="867" y="178" on="0"/>
        <pt x="942" y="60" on="0"/>
        <pt x="967" y="16" on="1"/>
        <pt x="905" y="-24" on="1"/>
        <pt x="824" y="119" on="0"/>
        <pt x="781" y="180" on="1"/>
      </contour>
      <contour>
        <pt x="260" y="8" on="1"/>
        <pt x="287" y="48" on="0"/>
        <pt x="340" y="159" on="0"/>
        <pt x="359" y="209" on="1"/>
        <pt x="422" y="184" on="1"/>
        <pt x="403" y="135" on="0"/>
        <pt x="346" y="15" on="0"/>
        <pt x="321" y="-29" on="1"/>
      </contour>
      <contour>
        <pt x="724" y="74" on="0"/>
        <pt x="726" y="126" on="1"/>
        <pt x="795" y="116" on="1"/>
        <pt x="795" y="106" on="0"/>
        <pt x="793" y="86" on="1"/>
        <pt x="793" y="73" on="0"/>
        <pt x="791" y="31" on="1"/>
        <pt x="790" y="1" on="0"/>
        <pt x="772" y="-31" on="0"/>
        <pt x="729" y="-46" on="0"/>
        <pt x="689" y="-49" on="1"/>
        <pt x="655" y="-52" on="0"/>
        <pt x="618" y="-52" on="1"/>
        <pt x="583" y="-52" on="0"/>
        <pt x="547" y="-49" on="1"/>
        <pt x="495" y="-44" on="0"/>
        <pt x="453" y="-10" on="0"/>
        <pt x="453" y="37" on="1"/>
        <pt x="453" y="200" on="1"/>
        <pt x="522" y="200" on="1"/>
        <pt x="522" y="58" on="1"/>
        <pt x="522" y="35" on="0"/>
        <pt x="539" y="20" on="0"/>
        <pt x="565" y="18" on="1"/>
        <pt x="603" y="16" on="0"/>
        <pt x="620" y="16" on="1"/>
        <pt x="639" y="16" on="0"/>
        <pt x="675" y="18" on="1"/>
        <pt x="702" y="20" on="0"/>
        <pt x="720" y="34" on="0"/>
        <pt x="722" y="56" on="1"/>
      </contour>
    </TTGlyph>
    <TTGlyph name="uni4E02" xMin="35" yMin="-38" xMax="962" yMax="829">
      <contour>
        <pt x="707" y="306" on="1"/>
        <pt x="755" y="251" on="0"/>
        <pt x="872" y="176" on="0"/>
        <pt x="962" y="139" on="1"/>
        <pt x="928" y="70" on="1"/>
        <pt x="820" y="119" on="0"/>
        <pt x="675" y="227" on="0"/>
        <pt x="618" y="306" on="1"/>
        <pt x="379" y="306" on="1"/>
        <pt x="333" y="238" on="0"/>
        <pt x="175" y="114" on="0"/>
        <pt x="69" y="63" on="1"/>
        <pt x="35" y="132" on="1"/>
        <pt x="204" y="206" on="0"/>
        <pt x="290" y="306" on="1"/>
        <pt x="49" y="306" on="1"/>
        <pt x="49" y="371" on="1"/>
        <pt x="227" y="371" on="1"/>
        <pt x="227" y="689" on="1"/>
        <pt x="82" y="689" on="1"/>
        <pt x="82" y="752" on="1"/>
        <pt x="227" y="752" on="1"/>
        <pt x="227" y="829" on="1"/>
        <pt x="305" y="829" on="1"/>
        <pt x="305" y="752" on="1"/>
        <pt x="692" y="752" on="1"/>
        <pt x="692" y="829" on="1"/>
        <pt x="770" y="829" on="1"/>
        <pt x="770" y="752" on="1"/>
        <pt x="916" y="752" on="1"/>
        <pt x="916" y="689" on="1"/>
        <pt x="770" y="689" on="1"/>
        <pt x="770" y="371" on="1"/>
        <pt x="950" y="371" on="1"/>
        <pt x="950" y="306" on="1"/>
      </contour>
      <contour>
        <pt x="692" y="624" on="1"/>
        <pt x="692" y="689" on="1"/>
        <pt x="305" y="689" on="1"/>
        <pt x="305" y="624" on="1"/>
      </contour>
      <contour>
        <pt x="692" y="561" on="1"/>
        <pt x="305" y="561" on="1"/>
        <pt x="305" y="497" on="1"/>
        <pt x="692" y="497" on="1"/>
      </contour>
      <contour>
        <pt x="692" y="436" on="1"/>
        <pt x="305" y="436" on="1"/>
        <pt x="305" y="371" on="1"/>
        <pt x="692" y="371" on="1"/>
      </contour>
      <contour>
        <pt x="734" y="110" on="1"/>
        <pt x="538" y="110" on="1"/>
        <pt x="538" y="30" on="1"/>
        <pt x="908" y="30" on="1"/>
        <pt x="908" y="-38" on="1"/>
        <pt x="88" y="-38" on="1"/>
        <pt x="88" y="30" on="1"/>
        <pt x="460" y="30" on="1"/>
        <pt x="460" y="110" on="1"/>
        <pt x="260" y="110" on="1"/>
        <pt x="260" y="174" on="1"/>
        <pt x="460" y="174" on="1"/>
        <pt x="460" y="266" on="1"/>
        <pt x="538" y="266" on="1"/>
        <pt x="538" y="174" on="1"/>
        <pt x="734" y="174" on="1"/>
      </contour>
    </TTGlyph>
    <TTGlyph name="uni4E03" xMin="35" yMin="-82" xMax="977" yMax="854">
      <contour>
        <pt x="254" y="674" on="1"/>
        <pt x="254" y="432" on="1"/>
        <pt x="254" y="308" on="0"/>
        <pt x="233" y="142" on="0"/>
        <pt x="178" y="0" on="0"/>
        <pt x="125" y="-79" on="1"/>
        <pt x="52" y="-37" on="1"/>
        <pt x="120" y="57" on="0"/>
        <pt x="174" y="204" on="0"/>
        <pt x="179" y="305" on="1"/>
        <pt x="151" y="291" on="1"/>
        <pt x="90" y="261" on="0"/>
        <pt x="62" y="244" on="1"/>
        <pt x="35" y="320" on="1"/>
        <pt x="78" y="341" on="1"/>
        <pt x="179" y="390" on="0"/>
        <pt x="181" y="391" on="1"/>
        <pt x="181" y="745" on="1"/>
        <pt x="531" y="745" on="1"/>
        <pt x="515" y="776" on="1"/>
        <pt x="504" y="796" on="0"/>
        <pt x="488" y="828" on="1"/>
        <pt x="568" y="854" on="1"/>
        <pt x="596" y="802" on="0"/>
        <pt x="623" y="745" on="1"/>
        <pt x="951" y="745" on="1"/>
        <pt x="951" y="674" on="1"/>
      </contour>
      <contour>
        <pt x="102" y="424" on="1"/>
        <pt x="94" y="466" on="0"/>
        <pt x="57" y="606" on="0"/>
        <pt x="42" y="655" on="1"/>
        <pt x="107" y="678" on="1"/>
        <pt x="120" y="637" on="0"/>
        <pt x="162" y="486" on="0"/>
        <pt x="171" y="446" on="1"/>
      </contour>
      <contour>
        <pt x="977" y="184" on="1"/>
        <pt x="975" y="156" on="0"/>
        <pt x="960" y="64" on="0"/>
        <pt x="951" y="28" on="1"/>
        <pt x="938" y="-27" on="0"/>
        <pt x="900" y="-71" on="0"/>
        <pt x="875" y="-71" on="1"/>
        <pt x="852" y="-71" on="0"/>
        <pt x="811" y="-23" on="0"/>
        <pt x="803" y="13" on="1"/>
        <pt x="775" y="115" on="0"/>
        <pt x="775" y="328" on="1"/>
        <pt x="775" y="524" on="1"/>
        <pt x="411" y="524" on="1"/>
        <pt x="411" y="329" on="1"/>
        <pt x="411" y="233" on="0"/>
        <pt x="392" y="103" on="0"/>
        <pt x="342" y="-13" on="0"/>
        <pt x="295" y="-82" on="1"/>
        <pt x="228" y="-39" on="1"/>
        <pt x="275" y="25" on="0"/>
        <pt x="322" y="131" on="0"/>
        <pt x="338" y="245" on="0"/>
        <pt x="338" y="332" on="1"/>
        <pt x="338" y="593" on="1"/>
        <pt x="849" y="593" on="1"/>
        <pt x="849" y="338" on="1"/>
        <pt x="849" y="163" on="0"/>
        <pt x="860" y="84" on="1"/>
        <pt x="867" y="43" on="0"/>
        <pt x="880" y="43" on="1"/>
        <pt x="889" y="43" on="0"/>
        <pt x="898" y="96" on="1"/>
        <pt x="909" y="164" on="0"/>
        <pt x="912" y="206" on="1"/>
      </contour>
      <contour>
        <pt x="743" y="443" on="1"/>
        <pt x="700" y="342" on="0"/>
        <pt x="639" y="240" on="1"/>
        <pt x="697" y="146" on="0"/>
        <pt x="760" y="39" on="1"/>
        <pt x="699" y="-2" on="1"/>
        <pt x="676" y="42" on="0"/>
        <pt x="599" y="175" on="1"/>
        <pt x="527" y="63" on="0"/>
        <pt x="455" y="-20" on="1"/>
        <pt x="400" y="35" on="1"/>
        <pt x="483" y="129" on="0"/>
        <pt x="557" y="245" on="1"/>
        <pt x="487" y="360" on="0"/>
        <pt x="446" y="420" on="1"/>
        <pt x="499" y="461" on="1"/>
        <pt x="526" y="422" on="0"/>
        <pt x="597" y="310" on="1"/>
        <pt x="644" y="393" on="0"/>
        <pt x="683" y="481" on="1"/>
      </contour>
    </TTGlyph>
    <TTGlyph name="uni4E04" xMin="33" yMin="-60" xMax="955" yMax="824">
      <contour>
        <pt x="401" y="748" on="1"/>
        <pt x="335" y="672" on="0"/>
        <pt x="276" y="614" on="1"/>
        <pt x="317" y="524" on="0"/>
        <pt x="347" y="315" on="0"/>
        <pt x="347" y="147" on="1"/>
        <pt x="347" y="66" on="0"/>
        <pt x="317" y="-23" on="0"/>
        <pt x="252" y="-60" on="0"/>
        <pt x="197" y="-60" on="1"/>
        <pt x="147" y="-60" on="0"/>
        <pt x="96" y="-54" on="1"/>
        <pt x="80" y="27" on="1"/>
        <pt x="141" y="18" on="0"/>
        <pt x="181" y="18" on="1"/>
        <pt x="220" y="18" on="0"/>
        <pt x="255" y="42" on="0"/>
        <pt x="268" y="106" on="0"/>
        <pt x="268" y="174" on="1"/>
        <pt x="268" y="290" on="0"/>
        <pt x="259" y="362" on="1"/>
        <pt x="176" y="248" on="0"/>
        <pt x="65" y="167" on="1"/>
        <pt x="34" y="248" on="1"/>
        <pt x="89" y="286" on="0"/>
        <pt x="199" y="394" on="0"/>
        <pt x="244" y="453" on="1"/>
        <pt x="232" y="504" on="0"/>
        <pt x="211" y="556" on="1"/>
        <pt x="148" y="502" on="0"/>
        <pt x="72" y="452" on="1"/>
        <pt x="33" y="526" on="1"/>
        <pt x="113" y="581" on="0"/>
        <pt x="174" y="633" on="1"/>
        <pt x="134" y="705" on="0"/>
        <pt x="75" y="783" on="1"/>
        <pt x="141" y="824" on="1"/>
        <pt x="203" y="745" on="0"/>
        <pt x="236" y="689" on="1"/>
        <pt x="290" y="741" on="0"/>
        <pt x="347" y="805" on="1"/>
      </contour>
      <contour>
        <pt x="705" y="351" on="1"/>
        <pt x="705" y="45" on="1"/>
        <pt x="955" y="45" on="1"/>
        <pt x="955" y="-34" on="1"/>
        <pt x="373" y="-34" on="1"/>
        <pt x="373" y="45" on="1"/>
        <pt x="621" y="45" on="1"/>
        <pt x="621" y="351" on="1"/>
        <pt x="426" y="351" on="1"/>
        <pt x="426" y="431" on="1"/>
        <pt x="621" y="431" on="1"/>
        <pt x="621" y="692" on="1"/>
        <pt x="423" y="692" on="1"/>
        <pt x="423" y="771" on="1"/>
        <pt x="928" y="771" on="1"/>
        <pt x="928" y="692" on="1"/>
        <pt x="705" y="692" on="1"/>
        <pt x="705" y="431" on="1"/>
        <pt x="909" y="431" on="1"/>
        <pt x="909" y="351" on="1"/>
      </contour>
    </TTGlyph>
    <TTGlyph name="uni4E05" xMin="68" yMin="-40" xMax="941" yMax="799">
      <contour>
        <pt x="184" y="799" on="1"/>
        <pt x="848" y="799" on="1"/>
        <pt x="848" y="451" on="1"/>
        <pt x="184" y="451" on="1"/>
      </contour>
      <contour>
        <pt x="770" y="658" on="1"/>
        <pt x="770" y="734" on="1"/>
        <pt x="261" y="734" on="1"/>
        <pt x="261" y="658" on="1"/>
      </contour>
      <contour>
        <pt x="261" y="594" on="1"/>
        <pt x="261" y="517" on="1"/>
        <pt x="770" y="517" on="1"/>
        <pt x="770" y="594" on="1"/>
      </contour>
      <contour>
        <pt x="567" y="27" on="1"/>
        <pt x="941" y="27" on="1"/>
        <pt x="941" y="-40" on="1"/>
        <pt x="96" y="-40" on="1"/>
        <pt x="96" y="27" on="1"/>
        <pt x="488" y="27" on="1"/>
        <pt x="488" y="129" on="1"/>
        <pt x="199" y="129" on="1"/>
        <pt x="199" y="196" on="1"/>
        <pt x="488" y="196" on="1"/>
        <pt x="488" y="285" on="1"/>
        <pt x="234" y="285" on="1"/>
        <pt x="182" y="209" on="0"/>
        <pt x="125" y="149" on="1"/>
        <pt x="68" y="201" on="1"/>
        <pt x="179" y="318" on="0"/>
        <pt x="236" y="440" on="1"/>
        <pt x="306" y="408" on="1"/>
        <pt x="288" y="372" on="0"/>
        <pt x="278" y="355" on="1"/>
        <pt x="488" y="355" on="1"/>
        <pt x="488" y="427" on="1"/>
        <pt x="567" y="427" on="1"/>
        <pt x="567" y="355" on="1"/>
        <pt x="905" y="355" on="1"/>
        <pt x="905" y="285" on="1"/>
        <pt x="567" y="285" on="1"/>
        <pt x="567" y="196" on="1"/>
        <pt x="869" y="196" on="1"/>
        <pt x="869" y="129" on="1"/>
        <pt x="567" y="129" on="1"/>
      </contour>
    </TTGlyph>
    <TTGlyph name="uni4E06" xMin="47" yMin="-80" xMax="907" yMax="832">
      <contour>
        <pt x="463" y="249" on="1"/>
        <pt x="538" y="249" on="1"/>
        <pt x="538" y="180" on="1"/>
        <pt x="47" y="180" on="1"/>
        <pt x="47" y="249" on="1"/>
        <pt x="141" y="249" on="1"/>
        <pt x="141" y="663" on="1"/>
        <pt x="67" y="663" on="1"/>
        <pt x="67" y="732" on="1"/>
        <pt x="141" y="732" on="1"/>
        <pt x="141" y="832" on="1"/>
        <pt x="213" y="832" on="1"/>
        <pt x="213" y="732" on="1"/>
        <pt x="393" y="732" on="1"/>
        <pt x="393" y="832" on="1"/>
        <pt x="463" y="832" on="1"/>
        <pt x="463" y="732" on="1"/>
        <pt x="535" y="732" on="1"/>
        <pt x="535" y="663" on="1"/>
        <pt x="463" y="663" on="1"/>
      </contour>
      <contour>
        <pt x="588" y="792" on="1"/>
        <pt x="907" y="792" on="1"/>
        <pt x="907" y="64" on="1"/>
        <pt x="907" y="-5" on="0"/>
        <pt x="858" y="-59" on="0"/>
        <pt x="795" y="-59" on="1"/>
        <pt x="752" y="-59" on="0"/>
        <pt x="708" y="-53" on="1"/>
        <pt x="692" y="22" on="1"/>
        <pt x="740" y="14" on="0"/>
        <pt x="783" y="14" on="1"/>
        <pt x="813" y="14" on="0"/>
        <pt x="835" y="45" on="0"/>
        <pt x="835" y="82" on="1"/>
        <pt x="835" y="238" on="1"/>
        <pt x="655" y="238" on="1"/>
        <pt x="648" y="137" on="0"/>
        <pt x="600" y="6" on="0"/>
        <pt x="541" y="-80" on="1"/>
        <pt x="471" y="-34" on="1"/>
        <pt x="527" y="40" on="0"/>
        <pt x="574" y="150" on="0"/>
        <pt x="588" y="298" on="0"/>
        <pt x="588" y="448" on="1"/>
      </contour>
      <contour>
        <pt x="835" y="548" on="1"/>
        <pt x="835" y="714" on="1"/>
        <pt x="660" y="714" on="1"/>
        <pt x="660" y="548" on="1"/>
      </contour>
      <contour>
        <pt x="393" y="570" on="1"/>
        <pt x="393" y="663" on="1"/>
        <pt x="213" y="663" on="1"/>
        <pt x="213" y="570" on="1"/>
      </contour>
      <contour>
        <pt x="393" y="502" on="1"/>
        <pt x="213" y="502" on="1"/>
        <pt x="213" y="409" on="1"/>
        <pt x="393" y="409" on="1"/>
      </contour>
      <contour>
        <pt x="835" y="312" on="1"/>
        <pt x="835" y="476" on="1"/>
        <pt x="660" y="476" on="1"/>
        <pt x="660" y="410" on="1"/>
        <pt x="660" y="342" on="0"/>
        <pt x="659" y="312" on="1"/>
      </contour>
      <contour>
        <pt x="393" y="343" on="1"/>
        <pt x="213" y="343" on="1"/>
        <pt x="213" y="249" on="1"/>
        <pt x="393" y="249" on="1"/>
      </contour>
      <contour>
        <pt x="49" y="-21" on="1"/>
        <pt x="125" y="48" on="0"/>
        <pt x="198" y="162" on="1"/>
        <pt x="260" y="119" on="1"/>
        <pt x="177" y="-6" on="0"/>
        <pt x="108" y="-74" on="1"/>
      </contour>
      <contour>
        <pt x="383" y="160" on="1"/>
        <pt x="395" y="142" on="0"/>
        <pt x="421" y="106" on="1"/>
        <pt x="433" y="89" on="0"/>
        <pt x="465" y="44" on="0"/>
        <pt x="483" y="18" on="1"/>
        <pt x="424" y="-24" on="1"/>
        <pt x="387" y="30" on="1"/>
        <pt x="342" y="98" on="0"/>
        <pt x="324" y="120" on="1"/>
      </contour>
    </TTGlyph>
    <TTGlyph name="uni4E07" xMin="109" yMin="-53" xMax="890" yMax="780">
      <contour>
        <pt x="109" y="-53" on="1"/>
        <pt x="109" y="780" on="1"/>
        <pt x="890" y="780" on="1"/>
        <pt x="890" y="-53" on="1"/>
        <pt x="810" y="-53" on="1"/>
        <pt x="810" y="4" on="1"/>
        <pt x="188" y="4" on="1"/>
        <pt x="188" y="-53" on="1"/>
      </contour>
      <contour>
        <pt x="188" y="82" on="1"/>
        <pt x="810" y="82" on="1"/>
        <pt x="810" y="268" on="1"/>
        <pt x="698" y="268" on="1"/>
        <pt x="627" y="268" on="0"/>
        <pt x="566" y="322" on="0"/>
        <pt x="566" y="391" on="1"/>
        <pt x="566" y="703" on="1"/>
        <pt x="425" y="703" on="1"/>
        <pt x="425" y="561" on="1"/>
        <pt x="425" y="479" on="0"/>
        <pt x="396" y="364" on="0"/>
        <pt x="326" y="265" on="0"/>
        <pt x="261" y="211" on="1"/>
        <pt x="200" y="265" on="1"/>
        <pt x="261" y="313" on="0"/>
        <pt x="324" y="399" on="0"/>
        <pt x="347" y="494" on="0"/>
        <pt x="347" y="564" on="1"/>
        <pt x="347" y="703" on="1"/>
        <pt x="188" y="703" on="1"/>
      </contour>
      <contour>
        <pt x="810" y="347" on="1"/>
        <pt x="810" y="703" on="1"/>
        <pt x="645" y="703" on="1"/>
        <pt x="645" y="422" on="1"/>
        <pt x="645" y="391" on="0"/>
        <pt x="657" y="360" on="0"/>
        <pt x="689" y="347" on="0"/>
        <pt x="721" y="347" on="1"/>
      </contour>
    </TTGlyph>
    <TTGlyph name="uni4E08" xMin="7" yMin="0" xMax="651" yMax="732">
      <contour>
        <pt x="106" y="732" on="1"/>
        <pt x="339" y="119" on="1"/>
        <pt x="561" y="732" on="1"/>
        <pt x="651" y="732" on="1"/>
        <pt x="373" y="0" on="1"/>
        <pt x="298" y="0" on="1"/>
        <pt x="7" y="732" on="1"/>
      </contour>
    </TTGlyph>
    <TTGlyph name="uni4E09" xMin="51" yMin="-67" xMax="947" yMax="838">
      <contour>
        <pt x="947" y="177" on="1"/>
        <pt x="931" y="104" on="0"/>
        <pt x="912" y="42" on="1"/>
        <pt x="893" y="-18" on="0"/>
        <pt x="841" y="-67" on="0"/>
        <pt x="802" y="-67" on="1"/>
        <pt x="764" y="-67" on="0"/>
        <pt x="699" y="-21" on="0"/>
        <pt x="667" y="29" on="1"/>
        <pt x="642" y="71" on="0"/>
        <pt x="624" y="122" on="1"/>
        <pt x="531" y="54" on="0"/>
        <pt x="420" y="1" on="1"/>
        <pt x="380" y="76" on="1"/>
        <pt x="500" y="130" on="0"/>
        <pt x="600" y="201" on="1"/>
        <pt x="570" y="318" on="0"/>
        <pt x="554" y="478" on="1"/>
        <pt x="329" y="478" on="1"/>
        <pt x="329" y="332" on="1"/>
        <pt x="390" y="345" on="1"/>
        <pt x="482" y="364" on="0"/>
        <pt x="494" y="367" on="1"/>
        <pt x="503" y="288" on="1"/>
        <pt x="329" y="254" on="1"/>
        <pt x="329" y="60" on="1"/>
        <pt x="329" y="-3" on="0"/>
        <pt x="278" y="-57" on="0"/>
        <pt x="219" y="-57" on="1"/>
        <pt x="161" y="-57" on="0"/>
        <pt x="118" y="-52" on="1"/>
        <pt x="102" y="25" on="1"/>
        <pt x="158" y="17" on="0"/>
        <pt x="205" y="17" on="1"/>
        <pt x="229" y="17" on="0"/>
        <pt x="249" y="48" on="0"/>
        <pt x="249" y="83" on="1"/>
        <pt x="249" y="238" on="1"/>
        <pt x="65" y="200" on="1"/>
        <pt x="52" y="280" on="1"/>
        <pt x="75" y="283" on="0"/>
        <pt x="249" y="316" on="1"/>
        <pt x="249" y="478" on="1"/>
        <pt x="51" y="478" on="1"/>
        <pt x="51" y="553" on="1"/>
        <pt x="249" y="553" on="1"/>
        <pt x="249" y="688" on="1"/>
        <pt x="176" y="677" on="0"/>
        <pt x="82" y="669" on="1"/>
        <pt x="76" y="742" on="1"/>
        <pt x="276" y="759" on="0"/>
        <pt x="460" y="803" on="1"/>
        <pt x="472" y="729" on="1"/>
        <pt x="425" y="717" on="0"/>
        <pt x="329" y="700" on="1"/>
        <pt x="329" y="553" on="1"/>
        <pt x="548" y="553" on="1"/>
        <pt x="544" y="603" on="0"/>
        <pt x="543" y="635" on="1"/>
        <pt x="537" y="756" on="0"/>
        <pt x="534" y="838" on="1"/>
        <pt x="613" y="838" on="1"/>
        <pt x="613" y="785" on="0"/>
        <pt x="621" y="638" on="1"/>
        <pt x="626" y="553" on="1"/>
        <pt x="940" y="553" on="1"/>
        <pt x="940" y="478" on="1"/>
        <pt x="632" y="478" on="1"/>
        <pt x="644" y="340" on="0"/>
        <pt x="664" y="252" on="1"/>
        <pt x="765" y="338" on="0"/>
        <pt x="836" y="450" on="1"/>
        <pt x="902" y="409" on="1"/>
        <pt x="811" y="275" on="0"/>
        <pt x="686" y="171" on="1"/>
        <pt x="708" y="109" on="0"/>
        <pt x="734" y="69" on="1"/>
        <pt x="754" y="41" on="0"/>
        <pt x="781" y="19" on="0"/>
        <pt x="798" y="19" on="1"/>
        <pt x="815" y="19" on="0"/>
        <pt x="839" y="48" on="0"/>
        <pt x="850" y="93" on="1"/>
        <pt x="864" y="142" on="0"/>
        <pt x="878" y="211" on="1"/>
      </contour>
      <contour>
        <pt x="836" y="595" on="1"/>
        <pt x="804" y="632" on="0"/>
        <pt x="714" y="721" on="0"/>
        <pt x="673" y="758" on="1"/>
        <pt x="724" y="809" on="1"/>
        <pt x="765" y="775" on="0"/>
        <pt x="859" y="685" on="0"/>
        <pt x="892" y="649" on="1"/>
      </contour>
    </TTGlyph>
    <TTGlyph name="uni4E0A" xMin="30" yMin="-73" xMax="957" yMax="846">
      <contour>
        <pt x="330" y="828" on="1"/>
        <pt x="293" y="703" on="0"/>
        <pt x="250" y="607" on="1"/>
        <pt x="250" y="-73" on="1"/>
        <pt x="171" y="-73" on="1"/>
        <pt x="171" y="454" on="1"/>
        <pt x="123" y="375" on="0"/>
        <pt x="68" y="307" on="1"/>
        <pt x="30" y="387" on="1"/>
        <pt x="94" y="475" on="0"/>
        <pt x="220" y="727" on="0"/>
        <pt x="255" y="846" on="1"/>
      </contour>
      <contour>
        <pt x="860" y="468" on="1"/>
        <pt x="850" y="48" on="1"/>
        <pt x="957" y="48" on="1"/>
        <pt x="957" y="-28" on="1"/>
        <pt x="296" y="-28" on="1"/>
        <pt x="296" y="48" on="1"/>
        <pt x="436" y="48" on="1"/>
        <pt x="482" y="389" on="1"/>
        <pt x="348" y="389" on="1"/>
        <pt x="348" y="468" on="1"/>
        <pt x="492" y="468" on="1"/>
        <pt x="522" y="689" on="1"/>
        <pt x="348" y="689" on="1"/>
        <pt x="348" y="766" on="1"/>
        <pt x="930" y="766" on="1"/>
        <pt x="930" y="689" on="1"/>
        <pt x="607" y="689" on="1"/>
        <pt x="577" y="468" on="1"/>
      </contour>
      <contour>
        <pt x="775" y="389" on="1"/>
        <pt x="566" y="389" on="1"/>
        <pt x="520" y="48" on="1"/>
        <pt x="767" y="48" on="1"/>
      </contour>
    </TTGlyph>
    <TTGlyph name="uni4E0B" xMin="34" yMin="-62" xMax="964" yMax="841">
      <contour>
        <pt x="673" y="841" on="1"/>
        <pt x="717" y="748" on="0"/>
        <pt x="860" y="596" on="0"/>
        <pt x="964" y="526" on="1"/>
        <pt x="920" y="457" on="1"/>
        <pt x="720" y="594" on="0"/>
        <pt x="635" y="754" on="1"/>
        <pt x="591" y="676" on="0"/>
        <pt x="447" y="523" on="0"/>
        <pt x="359" y="462" on="1"/>
        <pt x="311" y="528" on="1"/>
        <pt x="405" y="590" on="0"/>
        <pt x="551" y="752" on="0"/>
        <pt x="596" y="841" on="1"/>
      </contour>
      <contour>
        <pt x="354" y="357" on="1"/>
        <pt x="332" y="351" on="0"/>
        <pt x="330" y="350" on="1"/>
        <pt x="300" y="342" on="0"/>
        <pt x="250" y="327" on="1"/>
        <pt x="250" y="48" on="1"/>
        <pt x="250" y="7" on="0"/>
        <pt x="231" y="-36" on="0"/>
        <pt x="187" y="-53" on="0"/>
        <pt x="146" y="-53" on="1"/>
        <pt x="123" y="-53" on="0"/>
        <pt x="73" y="-49" on="1"/>
        <pt x="58" y="27" on="1"/>
        <pt x="97" y="21" on="0"/>
        <pt x="137" y="21" on="1"/>
        <pt x="156" y="21" on="0"/>
        <pt x="171" y="45" on="0"/>
        <pt x="171" y="75" on="1"/>
        <pt x="171" y="304" on="1"/>
        <pt x="96" y="282" on="0"/>
        <pt x="46" y="266" on="1"/>
        <pt x="34" y="344" on="1"/>
        <pt x="171" y="382" on="1"/>
        <pt x="171" y="591" on="1"/>
        <pt x="57" y="591" on="1"/>
        <pt x="57" y="666" on="1"/>
        <pt x="171" y="666" on="1"/>
        <pt x="171" y="837" on="1"/>
        <pt x="250" y="837" on="1"/>
        <pt x="250" y="666" on="1"/>
        <pt x="358" y="666" on="1"/>
        <pt x="358" y="591" on="1"/>
        <pt x="250" y="591" on="1"/>
        <pt x="250" y="405" on="1"/>
        <pt x="347" y="435" on="1"/>
      </contour>
      <contour>
        <pt x="454" y="453" on="1"/>
        <pt x="454" y="527" on="1"/>
        <pt x="814" y="527" on="1"/>
        <pt x="814" y="453" on="1"/>
      </contour>
      <contour>
        <pt x="479" y="-62" on="1"/>
        <pt x="405" y="-62" on="1"/>
        <pt x="405" y="335" on="1"/>
        <pt x="860" y="335" on="1"/>
        <pt x="860" y="-62" on="1"/>
        <pt x="785" y="-62" on="1"/>
        <pt x="785" y="-10" on="1"/>
        <pt x="479" y="-10" on="1"/>
      </contour>
      <contour>
        <pt x="785" y="62" on="1"/>
        <pt x="785" y="263" on="1"/>
        <pt x="479" y="263" on="1"/>
        <pt x="479" y="62" on="1"/>
      </contour>
    </TTGlyph>
    <TTGlyph name="v" xMin="10" yMin="0" xMax="505" yMax="519">
      <contour>
        <pt x="107" y="519" on="1"/>
        <pt x="267" y="113" on="1"/>
        <pt x="417" y="519" on="1"/>
        <pt x="505" y="519" on="1"/>
        <pt x="296" y="0" on="1"/>
        <pt x="227" y="0" on="1"/>
        <pt x="10" y="519" on="1"/>
      </contour>
    </TTGlyph>
    <TTGlyph name="w" xMin="69" yMin="-11" xMax="513" yMax="734">
      <contour>
        <pt x="355" y="467" on="0"/>
        <pt x="457" y="406" on="0"/>
        <pt x="513" y="299" on="0"/>
        <pt x="513" y="231" on="1"/>
        <pt x="513" y="160" on="0"/>
        <pt x="451" y="50" on="0"/>
        <pt x="343" y="-11" on="0"/>
        <pt x="277" y="-11" on="1"/>
        <pt x="204" y="-11" on="0"/>
        <pt x="91" y="62" on="0"/>
        <pt x="69" y="132" on="1"/>
        <pt x="141" y="173" on="1"/>
        <pt x="159" y="122" on="0"/>
        <pt x="228" y="70" on="0"/>
        <pt x="277" y="70" on="1"/>
        <pt x="343" y="70" on="0"/>
        <pt x="419" y="158" on="0"/>
        <pt x="419" y="227" on="1"/>
        <pt x="419" y="294" on="0"/>
        <pt x="346" y="386" on="0"/>
        <pt x="277" y="386" on="1"/>
        <pt x="190" y="386" on="0"/>
        <pt x="141" y="307" on="1"/>
        <pt x="84" y="336" on="1"/>
        <pt x="134" y="734" on="1"/>
        <pt x="480" y="734" on="1"/>
        <pt x="480" y="656" on="1"/>
        <pt x="212" y="656" on="1"/>
        <pt x="183" y="439" on="1"/>
        <pt x="227" y="467" on="0"/>
        <pt x="290" y="467" on="1"/>
      </contour>
    </TTGlyph>
    <TTGlyph name="x" xMin="48" yMin="-11" xMax="523" yMax="745">
      <contour>
        <pt x="523" y="180" on="0"/>
        <pt x="400" y="-11" on="0"/>
        <pt x="285" y="-11" on="1"/>
        <pt x="171" y="-11" on="0"/>
        <pt x="48" y="181" on="0"/>
        <pt x="48" y="366" on="1"/>
        <pt x="48" y="552" on="0"/>
        <pt x="171" y="745" on="0"/>
        <pt x="285" y="745" on="1"/>
        <pt x="400" y="745" on="0"/>
        <pt x="523" y="553" on="0"/>
        <pt x="523" y="366" on="1"/>
      </contour>
      <contour>
        <pt x="143" y="217" on="0"/>
        <pt x="212" y="71" on="0"/>
        <pt x="285" y="71" on="1"/>
        <pt x="358" y="71" on="0"/>
        <pt x="428" y="216" on="0"/>
        <pt x="428" y="366" on="1"/>
        <pt x="428" y="517" on="0"/>
        <pt x="358" y="664" on="0"/>
        <pt x="285" y="664" on="1"/>
        <pt x="212" y="664" on="0"/>
        <pt x="143" y="517" on="0"/>
        <pt x="143" y="366" on="1"/>
      </contour>
    </TTGlyph>
    <TTGlyph name="y" xMin="69" yMin="-11" xMax="513" yMax="734">
      <contour>
        <pt x="355" y="467" on="0"/>
        <pt x="457" y="406" on="0"/>
        <pt x="513" y="299" on="0"/>
        <pt x="513" y="231" on="1"/>
        <pt x="513" y="160" on="0"/>
        <pt x="451" y="50" on="0"/>
        <pt x="343" y="-11" on="0"/>
        <pt x="277" y="-11" on="1"/>
        <pt x="204" y="-11" on="0"/>
        <pt x="91" y="62" on="0"/>
        <pt x="69" y="132" on="1"/>
        <pt x="141" y="173" on="1"/>
        <pt x="159" y="122" on="0"/>
        <pt x="228" y="70" on="0"/>
        <pt x="277" y="70" on="1"/>
        <pt x="343" y="70" on="0"/>
        <pt x="419" y="158" on="0"/>
        <pt x="419" y="227" on="1"/>
        <pt x="419" y="294" on="0"/>
        <pt x="346" y="386" on="0"/>
        <pt x="277" y="386" on="1"/>
        <pt x="190" y="386" on="0"/>
        <pt x="141" y="307" on="1"/>
        <pt x="84" y="336" on="1"/>
        <pt x="134" y="734" on="1"/>
        <pt x="480" y="734" on="1"/>
        <pt x="480" y="656" on="1"/>
        <pt x="212" y="656" on="1"/>
        <pt x="183" y="439" on="1"/>
        <pt x="227" y="467" on="0"/>
        <pt x="290" y="467" on="1"/>
      </contour>
    </TTGlyph>
    <TTGlyph name="z" xMin="48" yMin="-11" xMax="523" yMax="745">
      <contour>
        <pt x="523" y="180" on="0"/>
        <pt x="400" y="-11" on="0"/>
        <pt x="285" y="-11" on="1"/>
        <pt x="171" y="-11" on="0"/>
        <pt x="48" y="181" on="0"/>
        <pt x="48" y="366" on="1"/>
        <pt x="48" y="552" on="0"/>
        <pt x="171" y="745" on="0"/>
        <pt x="285" y="745" on="1"/>
        <pt x="400" y="745" on="0"/>
        <pt x="523" y="553" on="0"/>
        <pt x="523" y="366" on="1"/>
      </contour>
      <contour>
        <pt x="143" y="217" on="0"/>
        <pt x="212" y="71" on="0"/>
        <pt x="285" y="71" on="1"/>
        <pt x="358" y="71" on="0"/>
        <pt x="428" y="216" on="0"/>
        <pt x="428" y="366" on="1"/>
        <pt x="428" y="517" on="0"/>
        <pt x="358" y="664" on="0"/>
        <pt x="285" y="664" on="1"/>
        <pt x="212" y="664" on="0"/>
        <pt x="143" y="517" on="0"/>
        <pt x="143" y="366" on="1"/>
      </contour>
    </TTGlyph>
    <TTGlyph name="zero" xMin="69" yMin="-11" xMax="513" yMax="734">
      <contour>
        <pt x="355" y="467" on="0"/>
        <pt x="457" y="406" on="0"/>
        <pt x="513" y="299" on="0"/>
        <pt x="513" y="231" on="1"/>
        <pt x="513" y="160" on="0"/>
        <pt x="451" y="50" on="0"/>
        <pt x="343" y="-11" on="0"/>
        <pt x="277" y="-11" on="1"/>
        <pt x="204" y="-11" on="0"/>
        <pt x="91" y="62" on="0"/>
        <pt x="69" y="132" on="1"/>
        <pt x="141" y="173" on="1"/>
        <pt x="159" y="122" on="0"/>
        <pt x="228" y="70" on="0"/>
        <pt x="277" y="70" on="1"/>
        <pt x="343" y="70" on="0"/>
        <pt x="419" y="158" on="0"/>
        <pt x="419" y="227" on="1"/>
        <pt x="419" y="294" on="0"/>
        <pt x="346" y="386" on="0"/>
        <pt x="277" y="386" on="1"/>
        <pt x="190" y="386" on="0"/>
        <pt x="141" y="307" on="1"/>
        <pt x="84" y="336" on="1"/>
        <pt x="134" y="734" on="1"/>
        <pt x="480" y="734" on="1"/>
        <pt x="480" y="656" on="1"/>
        <pt x="212" y="656" on="1"/>
        <pt x="183" y="439" on="1"/>
        <pt x="227" y="467" on="0"/>
        <pt x="290" y="467" on="1"/>
      </contour>
    </TTGlyph>
</ttFont>
